<svg xmlns="http://www.w3.org/2000/svg" enable-background="new 0 0 1000 1000" viewBox="0 0 1000 1000" id="trajectory-education"><path fill="#c2d8f2" d="M187.79,764.44c0,0-2.75-107.07,18.85-170.69c21.6-63.61-85.57-159.54-9.37-223.3    c33.23-27.81,181.83-191.33,343.6-134.94c122.82,42.82,66.48,101.88,90.8,165.39c24.32,63.51,59.77,133.67,72.58,147.64    c12.82,13.97-11.94-53.91-11.99-84.13c-0.06-30.22,91.48-2.08,122,43.97c30.52,46.05-9.38,191.53-25.38,220.23    c-16,28.71-54.95,35.82-54.95,35.82L187.79,764.44z"></path><path fill="#9bd" d="M775.64 406.72c-8.13 0-14.75-6.62-14.75-14.75 0-8.13 6.62-14.75 14.75-14.75 8.13 0 14.75 6.62 14.75 14.75C790.39 400.1 783.78 406.72 775.64 406.72zM775.64 380.8c-6.16 0-11.17 5.01-11.17 11.17s5.01 11.17 11.17 11.17c6.16 0 11.17-5.01 11.17-11.17S781.8 380.8 775.64 380.8zM173.55 404.4c-8.13 0-14.75-6.62-14.75-14.75 0-8.13 6.62-14.75 14.75-14.75s14.75 6.62 14.75 14.75C188.3 397.78 181.69 404.4 173.55 404.4zM173.55 378.48c-6.16 0-11.17 5.01-11.17 11.17 0 6.16 5.01 11.17 11.17 11.17 6.16 0 11.17-5.01 11.17-11.17C184.73 383.49 179.71 378.48 173.55 378.48zM314.84 279.8c-8.13 0-14.75-6.62-14.75-14.75 0-8.13 6.62-14.75 14.75-14.75 8.13 0 14.75 6.62 14.75 14.75C329.59 273.19 322.97 279.8 314.84 279.8zM314.84 253.88c-6.16 0-11.17 5.01-11.17 11.17s5.01 11.17 11.17 11.17c6.16 0 11.17-5.01 11.17-11.17S321 253.88 314.84 253.88zM251.9 768.72c-.12-.36-12.7-36.47-34.03-73.98-19.57-34.42-50.7-77.1-87.91-85l.74-3.5c17.08 3.63 34.28 14.43 51.11 32.11 13.36 14.03 26.55 32.43 39.19 54.67 21.48 37.8 34.15 74.17 34.27 74.54L251.9 768.72zM273.92 768.63c-.13-.44-13-44.73-22.45-105.06-5.55-35.44-8.85-69.42-9.82-100.98-1.21-39.49 1.26-75.31 7.34-106.46l3.51.69c-13.66 69.97-6.18 150.73 2.49 206.15 9.41 60.11 22.23 104.22 22.36 104.66L273.92 768.63zM297.56 768.62l-3.44-.98c.07-.24 7.05-24.47 19.14-50.24 7.12-15.17 14.61-27.91 22.24-37.87 9.66-12.6 19.63-20.8 29.64-24.37 11.52-4.11 23.16-2.17 34.58 5.76l-2.04 2.94c-10.42-7.24-20.97-9.03-31.34-5.33-16.89 6.03-34.13 26.91-49.85 60.4C304.53 744.43 297.63 768.38 297.56 768.62z"></path><path fill="#9bd" d="M314.82,769.06l-3.05-1.86c0.12-0.2,12.1-19.8,22.13-33.48c4.7-6.4,11.24-7.66,17.01-8.78      c7.53-1.45,12.5-2.41,12.04-13.38l-0.08-1.84c-0.61-14.13-1.01-23.46,3.87-28.17c2.59-2.5,6.38-3.47,11.92-3.04      c6.03,0.47,11.5-0.51,16.78-1.45c8.09-1.45,15.74-2.81,23.46,1.59c0.67,0.38,1.07,0.49,1.26,0.51c0.26-0.75,0.08-3.48-2.11-8.1      c-4.29-9.09-16.52-24.98-35.12-26.86c-31.11-3.15-34.9-1.59-44.38,9.54c-4.56,5.35-6.89,8.57-8.6,10.92      c-3.67,5.07-4.24,5.85-15.71,12.86c-16.98,10.38-17.81,17.63-16.64,22.79c2.73,11.97-8.69,65.91-9.18,68.2l-3.5-0.74      c4.07-19.13,11.23-57.69,9.19-66.66c-2.14-9.39,3.49-17.61,18.26-26.63c10.86-6.64,11.3-7.24,14.68-11.91      c1.74-2.4,4.12-5.69,8.77-11.15c5.35-6.28,9.3-9.75,16-11.29c6.77-1.56,16.28-1.02,31.46,0.52      c12.35,1.25,21.55,8.11,27.09,13.65c7.2,7.2,11.31,15.06,12.76,20.03c1.12,3.85,0.86,6.45-0.77,7.74      c-0.91,0.71-2.55,1.24-5.23-0.29c-6.59-3.76-13.3-2.56-21.06-1.18c-5.25,0.94-11.21,2-17.69,1.5c-4.44-0.35-7.35,0.31-9.15,2.05      c-3.72,3.59-3.32,12.76-2.78,25.44l0.08,1.84c0.59,14.05-7.3,15.57-14.93,17.05c-5.38,1.04-10.94,2.11-14.8,7.38      C326.84,749.39,314.94,768.87,314.82,769.06z"></path><path fill="#9bd" d="M291.09,736.25c-0.07-0.2-6.91-20.57-9.65-48.01c-1.34-13.41,2.57-21.38,6.02-28.41      c3.97-8.09,7.4-15.07,3.6-29.07c-3.56-13.11-7.85-15.15-11.64-16.95c-2.09-0.99-4.25-2.02-5.97-4.54      c-1.79-2.62-2.85-6.53-3.35-12.33c-1.01-11.78,2.92-16.48,6.38-20.63c3.86-4.63,6.9-8.28,2.51-21.91      c-3.41-10.59-7.06-14.98-10-18.5c-4.63-5.56-7.69-9.24-5.56-28.4c1.71-15.42,6.94-21.84,10.75-26.54c4.05-4.99,6.5-8,3.16-18.9      c-3.85-12.59-7.3-19.72-11.52-23.82c-4.68-4.55-10.52-5.46-18.95-2.96c-8.28,2.46-13.9,8.07-16.68,16.7      c-2.61,8.09-2.53,18.4,0.24,29.81c2.55,10.53-1.91,22.95-6.63,36.1c-5.91,16.46-12.03,33.48-5.73,49.04      c3.62,8.95,6.25,13.78,8.17,17.31c4.43,8.13,4.46,8.66,1.58,28.34c-1.06,7.25-1.99,12.45-2.68,16.24      c-2,11.09-2.16,11.99,1.34,25.59l-3.46,0.89c-3.69-14.36-3.47-15.57-1.39-27.12c0.68-3.77,1.61-8.93,2.66-16.13      c2.76-18.87,2.76-18.87-1.19-26.11c-1.85-3.4-4.65-8.54-8.35-17.68c-6.81-16.83-0.18-35.3,5.68-51.6      c4.54-12.63,8.82-24.56,6.52-34.05c-2.92-12.05-2.98-23.03-0.17-31.75c3.12-9.67,9.71-16.25,19.06-19.03      c9.68-2.87,16.82-1.66,22.46,3.83c4.69,4.55,8.41,12.13,12.45,25.34c3.89,12.72,0.49,16.91-3.81,22.2      c-3.73,4.59-8.37,10.31-9.97,24.68c-1.96,17.65,0.57,20.68,4.76,25.71c3.13,3.76,7.03,8.44,10.65,19.69      c4.99,15.5,0.84,20.48-3.17,25.29c-3.31,3.97-6.45,7.73-5.56,18.04c0.94,10.92,3.6,12.19,7.3,13.95      c4.26,2.03,9.56,4.55,13.55,19.25c4.15,15.31,0.09,23.58-3.84,31.59c-3.4,6.92-6.92,14.08-5.68,26.48      c2.7,27.01,9.42,47.02,9.48,47.22L291.09,736.25z"></path><path fill="#9bd" d="M238.08,768.51c-6.86-31.69-16.83-41.06-25.63-49.33c-5.2-4.89-10.11-9.5-13.55-17.96      c-1.52-3.74-2.8-6.96-3.93-9.8c-5.54-13.93-7.21-18.13-14.79-27.65c-3.91-4.91-6.74-5.19-11.01-5.62      c-5.09-0.51-12.06-1.21-23.44-9.92c-12.33-9.45-11.98-16.63-11.74-21.38c0.07-1.5,0.13-2.68-0.27-3.38      c-0.43-0.75-1.66-1.34-3.75-1.78c-3.62-0.76-8.52-0.87-13.26-0.97c-9.41-0.2-18.31-0.39-21.54-5.16      c-1.45-2.13-1.55-4.9-0.31-8.21c1.9-5.08,5.95-8.8,11.72-10.77c10.02-3.42,24.41-1.24,34.99,5.31c5.83,3.61,9.9,2.24,14.6,0.65      c6.04-2.04,12.89-4.35,23.46,4.04c8.13,6.45,11.15,14.08,13.57,20.21c3.18,8.05,5.11,12.92,15.54,12.4      c13.4-0.66,16.28,9.72,19.34,20.72c2.17,7.81,4.63,16.66,11,23.59c16,17.39,29.49,81.55,30.06,84.27l-3.5,0.73      c-0.14-0.66-13.86-65.91-29.19-82.58c-6.96-7.57-9.54-16.86-11.82-25.06c-3.3-11.89-5.66-18.6-15.71-18.1      c-13,0.63-15.8-6.45-19.05-14.66c-2.38-6.03-5.09-12.86-12.47-18.72c-9.05-7.18-14.41-5.37-20.09-3.45      c-4.86,1.64-10.37,3.5-17.63-1c-9.58-5.93-23.01-8.02-31.95-4.96c-4.79,1.64-7.99,4.54-9.53,8.64c-0.82,2.2-0.85,3.82-0.08,4.95      c2.2,3.24,10.94,3.43,18.66,3.59c4.91,0.1,9.98,0.21,13.93,1.05c7.22,1.53,7.04,5.24,6.86,8.84      c-0.21,4.24-0.5,10.05,10.34,18.36c10.56,8.1,16.69,8.71,21.62,9.2c4.62,0.46,8.61,0.86,13.46,6.95      c7.91,9.93,9.78,14.63,15.32,28.56c1.13,2.83,2.4,6.05,3.92,9.77c3.14,7.73,7.56,11.88,12.68,16.7      c9.18,8.63,19.58,18.4,26.68,51.18L238.08,768.51z"></path><g><path fill="#9bd" d="M779.37 769.01c.1-.29 10.03-29.52 27.01-59.94 15.56-27.86 40.38-62.46 70.27-69.05l-.77-3.49c-13.85 3.05-27.73 11.92-41.27 26.36-10.73 11.44-21.29 26.41-31.38 44.48-17.14 30.7-27.16 60.2-27.25 60.5L779.37 769.01zM761.58 769.06c.1-.36 10.23-36.24 17.5-85.07 4.27-28.68 6.73-56.17 7.31-81.69.73-31.94-1.49-60.9-6.6-86.05l-3.5.71c11.46 56.4 5.92 121.65-.74 166.46-7.23 48.61-17.31 84.31-17.41 84.67L761.58 769.06zM741.82 769.2l3.43-1.01c-.06-.2-5.85-19.76-15.8-40.52-5.86-12.24-12-22.51-18.25-30.53-7.93-10.18-16.09-16.78-24.26-19.62-9.44-3.29-18.94-1.64-28.22 4.91l2.06 2.92c8.28-5.84 16.68-7.34 24.98-4.46 13.59 4.73 27.57 21.43 40.44 48.28C736.03 749.69 741.76 769.01 741.82 769.2z"></path><path fill="#9bd" d="M727.91,769.75l3.04-1.89c-0.1-0.16-9.9-15.93-18.1-26.94c-3.91-5.25-9.51-6.29-14.01-7.12      c-6.13-1.13-9.82-1.81-9.53-10.39l0.05-1.49c0.41-11.51,0.67-19.12-3.4-23c-2.19-2.08-5.33-2.87-9.91-2.48      c-4.82,0.41-9.23-0.34-13.48-1.07c-6.61-1.13-12.86-2.2-19.17,1.47c-0.24,0.14-0.42,0.23-0.56,0.28      c-0.07-1.04,0.41-3.87,2.83-8.22c4.73-8.52,14.25-18.12,26.79-19.49c24.95-2.72,27.99-1.5,35.62,7.32      c3.71,4.28,5.61,6.87,7,8.75c3.11,4.22,3.85,4.97,12.88,10.39c13.6,8.17,14.32,13.88,13.43,17.94      c-2.14,9.76,7.43,53.34,7.84,55.19l3.49-0.77c-2.74-12.39-9.48-46.19-7.84-53.66c1.71-7.77-2.94-14.48-15.08-21.77      c-8.76-5.26-9.05-5.66-11.84-9.44c-1.42-1.93-3.37-4.58-7.17-8.97c-8.86-10.24-13.56-11.27-38.72-8.53      c-10.07,1.1-17.53,6.75-22.01,11.29c-5.82,5.91-9.12,12.35-10.27,16.41c-0.92,3.26-0.66,5.49,0.79,6.61      c0.82,0.64,2.28,1.11,4.61-0.24c5.2-3.02,10.56-2.1,16.78-1.04c4.27,0.73,9.11,1.56,14.39,1.11c3.48-0.3,5.75,0.18,7.14,1.5      c2.91,2.77,2.65,10.12,2.3,20.28l-0.05,1.49c-0.4,11.66,6.43,12.92,12.45,14.03c4.29,0.79,8.72,1.61,11.79,5.74      C718.09,753.94,727.82,769.59,727.91,769.75z"></path><path fill="#9bd" d="M747.51,743.01c0.05-0.16,5.47-16.7,7.52-38.93c1.01-10.94-2.22-17.4-5.08-23.1      c-3.23-6.45-6.01-12.02-3.06-23.23c2.75-10.46,6.13-12.1,9.11-13.55c4.1-1.99,6.85-4.04,7.62-13.97      c0.75-9.66-2.5-13.5-5.36-16.88c-3.08-3.63-5.51-6.5-2.1-17.36c2.67-8.51,5.57-12.05,7.9-14.9c4.11-5.01,6.17-8.32,4.39-23.24      c-1.49-12.55-5.79-17.75-8.93-21.55c-3.23-3.92-5.18-6.28-2.61-14.93c5.99-20.13,11.61-25.18,24.03-21.6      c6.59,1.9,11.08,6.33,13.35,13.17c2.14,6.46,2.13,14.73-0.02,23.9c-2.02,8.62,1.68,18.68,5.59,29.32      c4.86,13.2,9.88,26.86,4.94,39.35c-2.86,7.24-4.95,11.15-6.48,14c-3.55,6.63-3.58,7.28-1.14,23.12      c0.9,5.86,1.69,10.05,2.27,13.12c1.7,9.06,1.8,9.6-0.92,20.54l3.47,0.86c2.83-11.37,2.75-12.58,0.96-22.07      c-0.57-3.04-1.35-7.2-2.25-13c-2.33-15.12-2.33-15.12,0.76-20.89c1.48-2.77,3.71-6.95,6.65-14.37      c5.45-13.76-0.05-28.71-4.91-41.9c-3.73-10.13-7.25-19.69-5.47-27.27c2.3-9.82,2.28-18.75-0.07-25.84      c-2.62-7.91-8.06-13.26-15.75-15.48c-7.97-2.3-13.84-1.24-18.46,3.32c-3.8,3.75-6.79,9.94-9.99,20.7      c-3.12,10.48-0.15,14.07,3.28,18.23c3.01,3.65,6.77,8.2,8.13,19.7c1.68,14.1-0.31,16.53-3.61,20.55      c-2.53,3.08-5.67,6.92-8.55,16.09c-4,12.74-0.55,16.81,2.78,20.74c2.66,3.14,5.16,6.1,4.52,14.29      c-0.67,8.64-2.75,9.64-5.62,11.03c-3.49,1.69-7.84,3.8-11.01,15.86c-3.29,12.52,0.07,19.24,3.32,25.74      c2.77,5.53,5.63,11.25,4.72,21.17c-2.01,21.8-7.3,37.97-7.35,38.13L747.51,743.01z"></path><path fill="#9bd" d="M768.28,768.87c0.11-0.53,10.77-53.25,22.99-66.74c5.63-6.22,7.67-13.78,9.47-20.46      c2.62-9.73,4.36-14.8,12.24-14.47c10.75,0.45,13.12-5.69,15.63-12.18c1.87-4.85,4-10.34,9.85-15.06      c7.12-5.74,11.18-4.4,15.89-2.85c4.01,1.32,8.55,2.81,14.53-0.95c7.62-4.8,18.34-6.56,25.49-4.17c3.78,1.26,6.31,3.52,7.54,6.72      c0.95,2.47,0.33,3.39,0.13,3.69c-1.66,2.49-8.63,2.69-14.78,2.86c-3.98,0.11-8.1,0.23-11.31,0.94      c-6.11,1.34-5.92,4.63-5.75,7.54c0.19,3.35,0.46,7.94-8.11,14.61c-8.41,6.55-13.3,7.08-17.23,7.5      c-3.81,0.41-7.09,0.76-11.06,5.83c-6.37,8.12-7.85,11.93-12.25,23.26c-0.89,2.3-1.9,4.9-3.1,7.92      c-2.46,6.19-5.98,9.56-10.06,13.45c-7.4,7.06-15.79,15.06-21.34,41.69l3.5,0.73c5.33-25.54,13.28-33.14,20.31-39.84      c4.2-4.01,8.17-7.79,10.92-14.71c1.21-3.03,2.22-5.64,3.11-7.95c4.37-11.25,5.69-14.65,11.73-22.34      c3.04-3.88,5.14-4.1,8.63-4.48c4.15-0.45,9.84-1.06,19.05-8.23c10.05-7.83,9.71-13.73,9.49-17.64      c-0.06-1.11-0.12-2.06,0.15-2.55c0.36-0.64,1.72-1.06,2.8-1.29c2.89-0.63,6.83-0.75,10.65-0.86c7.7-0.22,14.97-0.43,17.65-4.46      c1.22-1.83,1.3-4.17,0.23-6.95c-1.6-4.19-4.98-7.24-9.75-8.83c-8.21-2.73-19.94-0.87-28.53,4.54      c-4.55,2.87-7.62,1.86-11.51,0.58c-4.98-1.64-10.62-3.49-19.25,3.47c-6.6,5.32-9.01,11.55-10.94,16.55      c-2.47,6.38-3.96,10.24-12.15,9.9c-11.1-0.46-13.4,8.07-15.84,17.11c-1.69,6.29-3.61,13.41-8.67,18.99      c-12.88,14.22-23.41,66.23-23.85,68.44L768.28,768.87z"></path></g><path fill="#576c89" d="M853.83,776.23H131.08l0,0c0-6.76,5.48-12.25,12.25-12.25h698.25C848.34,763.98,853.83,769.46,853.83,776.23    L853.83,776.23z"></path><g><path fill="#9bd" d="M439.78,437.28c-0.09-0.03-0.18-0.06-0.27-0.1l-13.72-5.44c-1.57-0.62-2.64-2.11-2.72-3.79l-0.28-5.52       l25.28,10.01l-3.98,3.83C442.94,437.38,441.28,437.76,439.78,437.28z M427.1,428.42l13.72,5.44c0.26,0.1,0.56,0.05,0.76-0.14       l-14.95-5.92C426.66,428.07,426.84,428.32,427.1,428.42z"></path><path fill="#9bd" d="M444.32,434.77c-0.21-0.07-0.42-0.14-0.63-0.23l-19.14-7.58c-2.69-1.07-4.78-3.25-5.72-5.98l-3.1-8.96        c-0.78-2.24-0.72-4.7,0.15-6.9l8.29-20.93l49.09,19.44l-8.29,20.93c-0.87,2.21-2.51,4.03-4.62,5.13l-8.39,4.4        C449.59,435.35,446.84,435.58,444.32,434.77z M426.17,388.84l-6.97,17.61c-0.56,1.41-0.59,2.98-0.1,4.42l3.1,8.96        c0.61,1.75,1.94,3.14,3.66,3.83l19.14,7.58c1.72,0.68,3.65,0.58,5.29-0.28l8.39-4.4c1.35-0.71,2.39-1.87,2.95-3.28l6.97-17.61        L426.17,388.84z"></path><path fill="#9bd" d="M457.81,402.69c-11.27-3.61-22.19-8.37-32.59-14.23c-2.94-1.24-4.51-4.56-3.57-7.63        c4.11-13.46,2.17-19.3-0.75-28.14c-1.44-4.35-3.07-9.27-4.39-16.05l-0.07-0.37c-0.07-0.36-0.13-0.72-0.19-1.08l-0.05-0.31        c-0.05-0.33-0.11-0.66-0.16-0.99c-0.02-0.14-0.04-0.28-0.06-0.42c-0.05-0.35-0.1-0.71-0.14-1.06l-0.03-0.24        c-0.05-0.42-0.1-0.84-0.14-1.26l-0.04-0.4c-0.03-0.32-0.06-0.65-0.08-0.97l-0.03-0.37c-0.03-0.43-0.06-0.85-0.08-1.28        l-0.01-0.3c-0.02-0.34-0.03-0.69-0.04-1.03l-0.01-0.41c-0.01-0.38-0.01-0.77-0.01-1.15l0-0.17c0-0.43,0.01-0.87,0.02-1.3        l0.01-0.38c0.01-0.34,0.02-0.68,0.04-1.02l0.02-0.34c0.02-0.43,0.05-0.87,0.08-1.31l0.02-0.28c0.03-0.36,0.06-0.71,0.09-1.07        l0.04-0.39c0.04-0.41,0.09-0.82,0.14-1.22l0.01-0.11c0.05-0.43,0.12-0.87,0.18-1.32l0.06-0.37c0.05-0.35,0.11-0.7,0.17-1.05        l0.05-0.32c0.08-0.44,0.16-0.88,0.25-1.31l0.06-0.28c0.07-0.36,0.15-0.72,0.23-1.08l0.08-0.37c0.1-0.43,0.2-0.86,0.31-1.28        l0.01-0.04c0.11-0.45,0.23-0.89,0.36-1.33l0.1-0.36c0.1-0.35,0.21-0.71,0.31-1.06l0.09-0.3c0.14-0.43,0.28-0.87,0.42-1.31        l0.1-0.28c0.12-0.35,0.25-0.71,0.37-1.06l0.13-0.36c0.16-0.44,0.33-0.87,0.5-1.31c0.19-0.48,0.38-0.95,0.58-1.42        c0.04-0.09,0.08-0.18,0.12-0.27l0.11-0.25c0.13-0.29,0.25-0.59,0.39-0.88c0.05-0.12,0.11-0.23,0.16-0.35l0.13-0.28        c0.12-0.25,0.23-0.5,0.35-0.74c0.06-0.13,0.13-0.26,0.19-0.39l0.15-0.31c0.11-0.22,0.22-0.43,0.33-0.65        c0.07-0.14,0.14-0.28,0.22-0.41l0.14-0.26c0.12-0.22,0.23-0.44,0.35-0.66c0.08-0.14,0.16-0.29,0.24-0.43l0.13-0.22        c0.12-0.22,0.24-0.44,0.37-0.65c0.09-0.15,0.18-0.3,0.27-0.45l0.08-0.13c0.15-0.25,0.28-0.47,0.42-0.7        c0.11-0.18,0.22-0.35,0.33-0.52l0.04-0.06c0.14-0.23,0.28-0.45,0.43-0.68c0.12-0.18,0.24-0.36,0.36-0.54l0.02-0.04        c0.15-0.22,0.29-0.44,0.44-0.66c0.13-0.19,0.26-0.38,0.39-0.57c0.15-0.22,0.3-0.43,0.46-0.64c0.13-0.19,0.27-0.37,0.41-0.56        c0.16-0.21,0.31-0.42,0.47-0.63c0.14-0.18,0.28-0.37,0.42-0.55c0.16-0.21,0.32-0.41,0.48-0.61c0.14-0.18,0.29-0.36,0.43-0.54        c0.16-0.2,0.33-0.4,0.49-0.6c0.15-0.18,0.3-0.35,0.44-0.52c0.17-0.2,0.34-0.39,0.51-0.58c0.15-0.17,0.3-0.34,0.46-0.51        c0.17-0.19,0.35-0.38,0.52-0.57c0.15-0.17,0.31-0.33,0.46-0.5c0.18-0.19,0.36-0.37,0.53-0.56c0.17-0.17,0.32-0.33,0.48-0.49        c0.18-0.18,0.36-0.36,0.55-0.54l0.05-0.05c0.14-0.14,0.29-0.28,0.43-0.42c0.19-0.18,0.38-0.36,0.56-0.53l0.08-0.07        c0.14-0.13,0.27-0.26,0.41-0.38c0.17-0.15,0.34-0.31,0.51-0.46l0.18-0.16c0.13-0.11,0.25-0.23,0.38-0.34        c0.17-0.15,0.34-0.3,0.51-0.44l0.2-0.17c0.13-0.11,0.25-0.22,0.38-0.32c0.18-0.15,0.35-0.29,0.53-0.43l0.23-0.19        c0.12-0.1,0.23-0.19,0.35-0.28c0.18-0.14,0.36-0.28,0.54-0.42l0.26-0.2c0.11-0.09,0.23-0.18,0.34-0.27        c0.18-0.14,0.37-0.27,0.55-0.41l0.29-0.21c0.1-0.08,0.21-0.15,0.31-0.23c0.24-0.17,0.47-0.34,0.71-0.5l0.21-0.15        c0.08-0.06,0.16-0.11,0.24-0.17c0.39-0.27,0.79-0.53,1.19-0.79c0.06-0.04,0.12-0.08,0.18-0.12l0.11-0.07        c0.3-0.19,0.61-0.39,0.92-0.58c0.11-0.06,0.21-0.13,0.31-0.19l0.28-0.17c0.21-0.13,0.42-0.25,0.63-0.38        c0.12-0.07,0.23-0.13,0.35-0.2l0.32-0.18c0.19-0.11,0.38-0.22,0.57-0.32c0.13-0.07,0.27-0.14,0.4-0.22l0.29-0.16        c0.19-0.1,0.38-0.2,0.57-0.3c0.14-0.07,0.28-0.15,0.42-0.22l0.3-0.15c0.18-0.09,0.37-0.19,0.55-0.28        c0.16-0.08,0.32-0.15,0.48-0.23l0.22-0.11c0.2-0.09,0.39-0.19,0.59-0.28c0.16-0.07,0.32-0.15,0.48-0.22l0.19-0.09        c0.21-0.09,0.42-0.19,0.63-0.28c0.18-0.08,0.36-0.16,0.55-0.23l0.08-0.03c0.23-0.1,0.46-0.19,0.69-0.29        c0.21-0.09,0.42-0.17,0.64-0.25c0.23-0.09,0.46-0.18,0.69-0.27c0.21-0.08,0.43-0.16,0.64-0.24c0.23-0.09,0.46-0.17,0.7-0.25        c0.22-0.08,0.43-0.15,0.65-0.23c0.23-0.08,0.47-0.16,0.7-0.24c0.22-0.07,0.44-0.14,0.66-0.21c0.23-0.07,0.47-0.15,0.7-0.22        c0.22-0.07,0.44-0.13,0.66-0.2c0.24-0.07,0.47-0.14,0.71-0.2c0.22-0.06,0.45-0.12,0.67-0.18c0.24-0.06,0.47-0.12,0.71-0.18        c0.22-0.06,0.45-0.11,0.67-0.17c0.24-0.06,0.48-0.11,0.72-0.17c0.23-0.05,0.45-0.1,0.68-0.15c0.24-0.05,0.48-0.1,0.72-0.15        c0.23-0.05,0.45-0.09,0.68-0.14c0.24-0.05,0.48-0.09,0.73-0.13l0.06-0.01c0.21-0.04,0.42-0.07,0.63-0.11        c0.23-0.04,0.46-0.07,0.69-0.11l0.16-0.02c0.19-0.03,0.38-0.06,0.57-0.09c0.21-0.03,0.42-0.06,0.63-0.08l0.27-0.04        c0.17-0.02,0.35-0.05,0.52-0.07c0.2-0.02,0.41-0.05,0.61-0.07l0.32-0.03c0.17-0.02,0.33-0.04,0.5-0.05        c0.2-0.02,0.41-0.04,0.61-0.05l0.33-0.03c0.17-0.01,0.33-0.03,0.5-0.04c0.2-0.01,0.39-0.02,0.59-0.04l0.39-0.02        c0.15-0.01,0.31-0.02,0.46-0.03c0.2-0.01,0.41-0.02,0.61-0.02l0.4-0.01c0.14-0.01,0.29-0.01,0.43-0.01        c0.24-0.01,0.48-0.01,0.72-0.01l0.38,0c0.12,0,0.24,0,0.35,0c0.48,0,0.96,0.01,1.44,0.02c0.13,0,0.25,0.01,0.38,0.01l0.4,0.01        c0.23,0.01,0.45,0.02,0.68,0.03c0.15,0.01,0.3,0.02,0.46,0.03l0.4,0.03c0.2,0.01,0.4,0.02,0.6,0.04        c0.16,0.01,0.32,0.03,0.48,0.04l0.4,0.03c0.19,0.02,0.39,0.03,0.58,0.05c0.17,0.02,0.33,0.04,0.5,0.05l0.37,0.04        c0.2,0.02,0.39,0.04,0.59,0.07c0.18,0.02,0.37,0.05,0.55,0.07l0.29,0.04c0.21,0.03,0.41,0.06,0.62,0.09        c0.19,0.03,0.38,0.06,0.56,0.09l0.25,0.04c0.21,0.03,0.43,0.07,0.64,0.11c0.2,0.03,0.4,0.07,0.6,0.11l0.2,0.04        c0.22,0.04,0.44,0.08,0.66,0.13c0.23,0.05,0.46,0.09,0.69,0.14l0.03,0.01c0.25,0.05,0.49,0.1,0.74,0.16        c0.24,0.05,0.48,0.11,0.72,0.17c0.24,0.06,0.49,0.12,0.73,0.18c0.24,0.06,0.48,0.12,0.72,0.19c0.24,0.06,0.49,0.13,0.73,0.2        c0.24,0.07,0.48,0.14,0.72,0.21c0.24,0.07,0.49,0.14,0.73,0.22c0.24,0.07,0.48,0.15,0.72,0.22l0.14,0.04        c0.08,0.02,0.16,0.05,0.23,0.07c0.07,0.02,0.13,0.04,0.2,0.07l0.11,0.04c0.31,0.1,0.61,0.21,0.92,0.31        c0.22,0.08,0.43,0.15,0.65,0.23c0.3,0.11,0.59,0.22,0.89,0.33l0.11,0.04c0.18,0.07,0.36,0.14,0.54,0.21l0.23,0.09        c0.16,0.06,0.31,0.13,0.46,0.19l0.39,0.16c0.13,0.05,0.27,0.11,0.4,0.17c0.4,0.17,0.79,0.34,1.18,0.52l0.26,0.12        c28.02,12.68,42.1,44.32,32.74,73.62l-0.09,0.28c-0.13,0.39-0.26,0.78-0.39,1.17c-0.06,0.17-0.12,0.35-0.18,0.52        c-0.11,0.32-0.23,0.63-0.35,0.95c-0.08,0.21-0.16,0.43-0.25,0.65l-0.05,0.14c-0.03,0.08-0.06,0.16-0.09,0.23        c-0.04,0.1-0.08,0.2-0.12,0.3l-0.07,0.18c-0.09,0.22-0.18,0.45-0.27,0.67c-0.12,0.29-0.25,0.58-0.38,0.87l-0.06,0.13        c-0.07,0.16-0.14,0.32-0.21,0.48c-0.15,0.32-0.3,0.64-0.45,0.96l-0.07,0.15c-0.04,0.08-0.08,0.16-0.11,0.25l-0.23,0.46        c-0.18,0.36-0.35,0.72-0.54,1.07L529.8,353c-0.2,0.38-0.41,0.77-0.61,1.15l-0.17,0.31c-0.21,0.38-0.42,0.75-0.63,1.11        l-0.14,0.24c-0.19,0.32-0.38,0.65-0.58,0.97l-0.15,0.25c-0.22,0.36-0.45,0.71-0.68,1.07l-0.19,0.29        c-0.23,0.36-0.47,0.71-0.71,1.05l-0.09,0.14c-0.23,0.33-0.45,0.65-0.68,0.97l-0.2,0.28c-0.25,0.34-0.49,0.67-0.74,1l-0.2,0.26        c-0.22,0.29-0.45,0.58-0.68,0.86l-0.16,0.2c-0.26,0.32-0.52,0.64-0.79,0.96l-0.24,0.28c-0.27,0.31-0.54,0.62-0.81,0.93        l-0.17,0.19c-0.24,0.27-0.48,0.53-0.73,0.79l-0.23,0.25c-0.28,0.29-0.56,0.59-0.84,0.87l-0.26,0.26        c-0.26,0.26-0.52,0.52-0.78,0.78l-0.18,0.18c-0.28,0.27-0.56,0.54-0.85,0.8l-0.28,0.26c-0.29,0.27-0.59,0.54-0.89,0.8        l-0.25,0.22c-0.25,0.22-0.51,0.44-0.77,0.66l-0.25,0.21c-0.3,0.25-0.61,0.5-0.92,0.75l-0.31,0.25        c-0.31,0.24-0.61,0.48-0.93,0.72l-0.23,0.17c-0.17,0.13-0.34,0.26-0.52,0.39l-0.53,0.38c-5.63,4.08-10.26,6.57-14.34,8.76        c-8.24,4.42-13.68,7.34-19.87,19.88c-1.42,2.88-4.84,4.22-7.83,3.11C465.5,405.01,461.63,403.92,457.81,402.69z M419.94,335.6        l0.07,0.35c1.27,6.56,2.87,11.37,4.27,15.62c3.03,9.15,5.22,15.76,0.78,30.3c-0.41,1.34,0.29,2.8,1.59,3.31l0.11,0.05        l0.11,0.06c13.71,7.74,28.34,13.53,43.48,17.22l0.12,0.03l0.11,0.05c1.31,0.52,2.81-0.06,3.43-1.32        c6.69-13.57,12.85-16.88,21.38-21.45c3.98-2.14,8.5-4.56,13.94-8.5l0.5-0.37c0.16-0.12,0.33-0.24,0.49-0.36l0.21-0.16        c0.29-0.22,0.58-0.45,0.87-0.68l0.29-0.23c0.29-0.23,0.58-0.47,0.86-0.7l0.23-0.2c0.24-0.2,0.48-0.41,0.72-0.62l0.24-0.21        c0.28-0.25,0.56-0.5,0.84-0.75l0.26-0.24c0.27-0.25,0.53-0.5,0.8-0.75l0.17-0.17c0.25-0.24,0.49-0.48,0.74-0.73l0.24-0.24        c0.26-0.27,0.53-0.54,0.79-0.82l0.22-0.23c0.23-0.25,0.46-0.49,0.68-0.75l0.16-0.18c0.26-0.29,0.51-0.58,0.76-0.88l0.22-0.26        c0.25-0.3,0.5-0.6,0.74-0.9l0.15-0.19c0.21-0.27,0.43-0.54,0.64-0.81l0.18-0.24c0.24-0.31,0.47-0.62,0.7-0.94l0.19-0.26        c0.22-0.3,0.43-0.6,0.64-0.91l0.09-0.13c0.22-0.32,0.44-0.65,0.66-0.99l0.18-0.27c0.22-0.33,0.43-0.67,0.64-1.01l0.14-0.23        c0.18-0.3,0.37-0.6,0.55-0.91l0.13-0.22c0.2-0.35,0.4-0.7,0.59-1.05l0.16-0.29c0.2-0.36,0.39-0.72,0.58-1.08l0.08-0.15        c0.17-0.33,0.34-0.67,0.51-1.01l0.21-0.43c0.03-0.06,0.06-0.12,0.09-0.19l0.09-0.19c0.14-0.3,0.28-0.6,0.42-0.91        c0.07-0.15,0.13-0.3,0.2-0.45l0.06-0.13c0.12-0.27,0.24-0.55,0.35-0.82c0.09-0.21,0.17-0.42,0.26-0.63l0.09-0.21        c0.03-0.08,0.07-0.16,0.1-0.24c0.02-0.06,0.04-0.12,0.07-0.17l0.07-0.18c0.08-0.2,0.16-0.4,0.23-0.61        c0.11-0.3,0.22-0.59,0.33-0.89c0.06-0.16,0.12-0.33,0.17-0.49c0.13-0.37,0.25-0.73,0.37-1.1l0.09-0.27        c8.8-27.56-4.45-57.34-30.81-69.27l-0.25-0.11c-0.37-0.17-0.74-0.33-1.12-0.49c-0.12-0.05-0.24-0.1-0.36-0.15l-0.42-0.17        c-0.13-0.06-0.27-0.11-0.41-0.17l-0.22-0.08c-0.17-0.07-0.33-0.13-0.5-0.19l-0.11-0.04c-0.28-0.11-0.56-0.21-0.83-0.31        c-0.2-0.07-0.4-0.14-0.61-0.21c-0.29-0.1-0.58-0.2-0.87-0.3l-0.29-0.1c-0.06-0.02-0.12-0.04-0.18-0.06l-0.17-0.05        c-0.23-0.07-0.45-0.14-0.68-0.21c-0.23-0.07-0.46-0.14-0.69-0.2c-0.23-0.07-0.45-0.13-0.68-0.19        c-0.23-0.06-0.46-0.12-0.69-0.19c-0.23-0.06-0.45-0.12-0.68-0.18c-0.23-0.06-0.46-0.11-0.69-0.17        c-0.23-0.05-0.45-0.11-0.68-0.16c-0.23-0.05-0.46-0.1-0.69-0.15l-0.03-0.01c-0.22-0.05-0.43-0.09-0.65-0.13        c-0.2-0.04-0.41-0.08-0.61-0.12l-0.21-0.04c-0.18-0.03-0.37-0.07-0.55-0.1c-0.2-0.03-0.4-0.07-0.6-0.1l-0.26-0.04        c-0.17-0.03-0.35-0.06-0.52-0.08c-0.19-0.03-0.38-0.05-0.57-0.08l-0.29-0.04c-0.17-0.02-0.34-0.05-0.51-0.07        c-0.18-0.02-0.36-0.04-0.54-0.06l-0.38-0.04c-0.15-0.02-0.3-0.03-0.45-0.05c-0.18-0.02-0.36-0.03-0.53-0.05l-0.42-0.04        c-0.14-0.01-0.28-0.03-0.42-0.04c-0.18-0.01-0.36-0.02-0.55-0.04l-0.42-0.03c-0.13-0.01-0.27-0.02-0.4-0.02        c-0.21-0.01-0.42-0.02-0.63-0.02l-0.42-0.02c-0.11,0-0.22-0.01-0.32-0.01c-0.45-0.01-0.9-0.02-1.35-0.02c-0.1,0-0.2,0-0.3,0        l-0.41,0c-0.22,0-0.44,0-0.66,0.01c-0.13,0-0.25,0.01-0.38,0.01l-0.42,0.01c-0.19,0.01-0.37,0.01-0.56,0.02        c-0.14,0.01-0.28,0.01-0.41,0.02l-0.4,0.02c-0.18,0.01-0.36,0.02-0.54,0.03c-0.15,0.01-0.3,0.02-0.45,0.04l-0.35,0.03        c-0.19,0.02-0.37,0.03-0.56,0.05c-0.15,0.01-0.3,0.03-0.45,0.05l-0.33,0.03c-0.19,0.02-0.38,0.04-0.57,0.06        c-0.16,0.02-0.32,0.04-0.48,0.06l-0.28,0.04c-0.2,0.03-0.39,0.05-0.59,0.08c-0.18,0.03-0.35,0.05-0.53,0.08l-0.16,0.02        c-0.22,0.03-0.43,0.07-0.65,0.1c-0.2,0.03-0.39,0.07-0.59,0.1l-0.06,0.01c-0.23,0.04-0.46,0.08-0.68,0.13        c-0.21,0.04-0.43,0.08-0.64,0.13c-0.23,0.05-0.45,0.09-0.68,0.14c-0.21,0.05-0.43,0.09-0.64,0.14        c-0.23,0.05-0.45,0.1-0.68,0.16c-0.21,0.05-0.42,0.1-0.63,0.16c-0.22,0.06-0.45,0.11-0.67,0.17        c-0.21,0.06-0.42,0.11-0.63,0.17c-0.22,0.06-0.44,0.12-0.67,0.19c-0.21,0.06-0.42,0.12-0.62,0.19        c-0.22,0.07-0.44,0.14-0.66,0.21c-0.21,0.07-0.41,0.13-0.62,0.2c-0.22,0.07-0.44,0.15-0.66,0.22        c-0.21,0.07-0.41,0.14-0.61,0.21c-0.22,0.08-0.44,0.16-0.65,0.24c-0.2,0.07-0.41,0.15-0.61,0.23        c-0.22,0.08-0.43,0.17-0.65,0.25c-0.2,0.08-0.4,0.16-0.6,0.24c-0.22,0.09-0.43,0.18-0.65,0.27l-0.08,0.03        c-0.17,0.07-0.34,0.14-0.51,0.22c-0.2,0.09-0.39,0.17-0.59,0.26l-0.19,0.09c-0.15,0.07-0.3,0.13-0.44,0.2        c-0.18,0.08-0.36,0.17-0.55,0.26l-0.23,0.11c-0.15,0.07-0.29,0.14-0.44,0.21c-0.17,0.08-0.34,0.17-0.51,0.26l-0.3,0.15        c-0.13,0.07-0.26,0.13-0.38,0.2c-0.18,0.09-0.35,0.19-0.52,0.28l-0.3,0.16c-0.12,0.06-0.24,0.13-0.36,0.19        c-0.18,0.1-0.35,0.2-0.53,0.3l-0.33,0.19c-0.1,0.06-0.21,0.12-0.31,0.18c-0.19,0.11-0.39,0.23-0.58,0.35l-0.3,0.18        c-0.09,0.05-0.18,0.11-0.27,0.16c-0.29,0.18-0.58,0.36-0.86,0.55l-0.27,0.17c-0.38,0.24-0.75,0.49-1.12,0.74        c-0.07,0.05-0.13,0.09-0.2,0.14l-0.24,0.17c-0.22,0.16-0.45,0.31-0.67,0.47c-0.09,0.07-0.18,0.13-0.27,0.2l-0.3,0.22        c-0.17,0.13-0.34,0.25-0.51,0.38c-0.1,0.08-0.2,0.16-0.3,0.23l-0.27,0.21c-0.17,0.13-0.33,0.25-0.49,0.38        c-0.11,0.08-0.21,0.17-0.32,0.26l-0.24,0.2c-0.16,0.13-0.33,0.27-0.49,0.4c-0.12,0.1-0.23,0.2-0.35,0.29l-0.2,0.17        c-0.16,0.14-0.32,0.27-0.48,0.41c-0.12,0.1-0.23,0.21-0.35,0.31l-0.19,0.17c-0.16,0.14-0.32,0.28-0.47,0.43        c-0.13,0.12-0.26,0.24-0.38,0.36l-0.08,0.07c-0.18,0.17-0.35,0.33-0.53,0.5c-0.14,0.13-0.27,0.26-0.41,0.4l-0.05,0.05        c-0.17,0.17-0.34,0.34-0.51,0.51c-0.15,0.15-0.29,0.3-0.44,0.45c-0.18,0.19-0.35,0.36-0.51,0.54        c-0.15,0.15-0.29,0.31-0.44,0.47c-0.16,0.18-0.33,0.36-0.49,0.54c-0.14,0.16-0.29,0.32-0.43,0.48        c-0.16,0.18-0.32,0.36-0.48,0.55c-0.14,0.16-0.28,0.33-0.42,0.49c-0.16,0.19-0.31,0.37-0.46,0.56        c-0.14,0.17-0.27,0.33-0.41,0.5c-0.15,0.19-0.3,0.38-0.45,0.58c-0.13,0.17-0.26,0.34-0.39,0.51        c-0.15,0.19-0.29,0.39-0.44,0.59c-0.13,0.17-0.26,0.35-0.38,0.52c-0.14,0.2-0.29,0.4-0.43,0.6c-0.12,0.18-0.25,0.35-0.37,0.53        c-0.14,0.2-0.28,0.41-0.42,0.62l-0.02,0.03c-0.11,0.17-0.22,0.34-0.33,0.5c-0.14,0.21-0.27,0.42-0.4,0.64l-0.04,0.06        c-0.1,0.16-0.2,0.32-0.3,0.49c-0.13,0.21-0.25,0.42-0.38,0.63l-0.1,0.16c-0.08,0.14-0.16,0.28-0.25,0.41        c-0.12,0.2-0.23,0.4-0.34,0.61l-0.13,0.23c-0.07,0.13-0.15,0.26-0.22,0.39c-0.11,0.2-0.22,0.41-0.33,0.62l-0.14,0.27        c-0.07,0.12-0.13,0.25-0.2,0.37c-0.1,0.2-0.2,0.4-0.3,0.6l-0.16,0.32c-0.06,0.11-0.12,0.23-0.17,0.34        c-0.11,0.23-0.22,0.46-0.33,0.69l-0.14,0.3c-0.05,0.1-0.1,0.2-0.14,0.3c-0.12,0.27-0.24,0.55-0.36,0.82l-0.12,0.28        c-0.03,0.07-0.06,0.15-0.1,0.22c-0.19,0.44-0.37,0.89-0.55,1.34c-0.16,0.41-0.32,0.82-0.47,1.23l-0.12,0.34        c-0.12,0.33-0.24,0.67-0.35,1l-0.09,0.27c-0.14,0.41-0.27,0.82-0.4,1.23l-0.08,0.28c-0.1,0.33-0.2,0.67-0.3,1l-0.1,0.34        c-0.12,0.41-0.23,0.83-0.34,1.24l-0.01,0.03c-0.1,0.41-0.2,0.81-0.3,1.22l-0.08,0.35c-0.08,0.34-0.15,0.68-0.22,1.01        l-0.05,0.26c-0.08,0.41-0.16,0.82-0.23,1.24l-0.05,0.3c-0.06,0.33-0.11,0.66-0.16,0.99l-0.05,0.35        c-0.06,0.41-0.12,0.83-0.17,1.24l-0.01,0.1c-0.05,0.38-0.09,0.77-0.13,1.15l-0.04,0.36c-0.03,0.34-0.06,0.67-0.09,1.01        l-0.02,0.26c-0.03,0.41-0.06,0.82-0.08,1.23l-0.01,0.32c-0.02,0.32-0.03,0.64-0.04,0.96l-0.01,0.36        c-0.01,0.41-0.02,0.81-0.02,1.22l0,0.16c0,0.36,0,0.72,0.01,1.08l0.01,0.38c0.01,0.32,0.02,0.65,0.03,0.97l0.01,0.28        c0.02,0.4,0.04,0.8,0.07,1.2l0.03,0.35c0.02,0.3,0.05,0.61,0.08,0.91l0.04,0.38c0.04,0.39,0.08,0.79,0.13,1.19l0.03,0.22        c0.04,0.33,0.09,0.66,0.13,1c0.02,0.13,0.04,0.26,0.06,0.4c0.05,0.31,0.1,0.62,0.15,0.93l0.05,0.29        C419.81,334.92,419.88,335.26,419.94,335.6z"></path><path fill="#9bd" d="M456.76,400.73l-3.32-1.32c0.05-0.13,5.39-13.54,12.07-27.34c3.93-8.13,7.56-14.82,10.77-19.88        c0.16-0.25,0.32-0.5,0.48-0.75c-3.87-1.05-8.51-2.86-14.05-5.8c-1.44-0.76-2.77-1.52-3.99-2.26        c-0.38,2.44-0.99,5.07-1.85,7.86c-11.26,36.59-14.22,43.67-14.34,43.95l-3.29-1.4c0.03-0.07,3.06-7.38,14.21-43.61        c1.05-3.42,1.66-6.41,1.94-8.99c-8.22-5.83-10.03-10.91-8.61-14.07c1-2.21,3.55-3.12,6.08-2.17c2.76,1.04,4.86,3.94,5.77,7.94        c0.44,1.95,0.61,4.13,0.5,6.51c1.52,0.99,3.26,2.02,5.26,3.08c5.75,3.04,10.58,4.87,14.53,5.81c3.09-4.29,5.77-6.86,8.13-7.82        c3.97-1.62,6.75-0.29,8.02,1.49c1.52,2.13,1.24,5.05-0.69,7.26c-1.22,1.4-5.03,4.49-13.86,3.04        c-3.01,4.48-6.87,11.22-11.77,21.35C462.11,387.3,456.81,400.6,456.76,400.73z M491.29,343.44c-0.74-0.24-1.76-0.13-2.9,0.34        c-1.1,0.45-2.87,1.75-5.54,5.2c4.53,0.46,7.43-0.52,8.82-2.11c0.95-1.09,0.92-2.2,0.47-2.83        C491.94,343.76,491.65,343.56,491.29,343.44z M451.46,328.26c-0.54-0.17-1.2-0.18-1.43,0.34c-0.52,1.15,0.55,4.21,5.5,8.21        c-0.25-5.08-2.09-7.81-3.95-8.51C451.55,328.29,451.51,328.28,451.46,328.26z"></path><rect width="3.58" height="49.6" x="443.15" y="378.63" fill="#9bd" transform="rotate(-61.269 444.91 403.418)"></rect><rect width="3.58" height="49.6" x="441.28" y="383.34" fill="#9bd" transform="rotate(-61.269 443.045 408.13)"></rect><rect width="3.58" height="49.6" x="439.42" y="388.05" fill="#9bd" transform="rotate(-61.269 441.177 412.842)"></rect><rect width="3.58" height="47.27" x="436.53" y="393.37" fill="#9bd" transform="rotate(-61.269 438.29 416.994)"></rect><g><rect width="3.58" height="18.97" x="547.27" y="344.43" fill="#9bd" transform="rotate(-68.389 549.073 353.92)"></rect></g><g><rect width="18.97" height="3.58" x="544.25" y="311.73" fill="#9bd" transform="rotate(-8.389 553.63 313.462)"></rect></g><g><rect width="18.97" height="3.58" x="528.11" y="274.4" fill="#9bd" transform="rotate(-38.39 537.603 276.198)"></rect></g><g><rect width="18.97" height="3.58" x="495.46" y="250.15" fill="#9bd" transform="rotate(-68.389 504.968 251.937)"></rect></g><g><rect width="3.58" height="18.97" x="462.76" y="237.77" fill="#9bd" transform="rotate(-8.389 464.584 247.267)"></rect></g><g><rect width="3.58" height="18.97" x="425.43" y="253.91" fill="#9bd" transform="rotate(-38.39 427.229 263.408)"></rect></g><g><rect width="3.58" height="18.97" x="401.18" y="286.56" fill="#9bd" transform="rotate(-68.389 402.982 296.05)"></rect></g></g><g><polygon fill="#e5bd83" points="432.54 432.58 457.74 587.9 445.05 578.73 420.04 423.54 425 427.12"></polygon><path fill="#c9a16b" d="M445.05,578.73l12.69,9.17c-58.07-0.36-101.85,19.88-101.85,19.88l-21.95,3.54      c-34.89-9.39-101.44,13.04-101.44,13.04l9.3-12.87c0,0,66.45-22.43,102.34-11.94C374.92,578.32,445.05,578.73,445.05,578.73z"></path><path fill="#fae0b2" d="M420.04 423.54l25.01 155.19c0 0-70.13-.42-100.91 20.81L321.3 457.8C321.3 457.8 356.16 420.49 420.04 423.54zM321.3 457.8l22.84 141.75c-35.89-10.49-102.34 11.94-102.34 11.94L216.8 456.29C276.49 433.32 321.3 457.8 321.3 457.8z"></path><path fill="#8f3c7d" d="M445.12,423.88l27.54,170.92c0,0-71.84-0.95-115.85,18.67l-23.58,3.8      c-50.31-6.91-112.59,18.14-112.59,18.14L193.1,464.49l20.12-3.24l-6.3,8.73l25.59,154.38c0,0,66.56-22.43,101.44-13.04      l21.95-3.54c0,0,43.78-20.24,101.85-19.88l-25.2-155.32l-7.54-5.46L445.12,423.88z"></path><polygon fill="#e5bd83" points="216.8 456.29 241.81 611.49 232.51 624.36 206.91 469.97 213.22 461.25"></polygon><path fill="#b28856" d="M272.27 609.31c3.76-1.25 7.62-2.15 11.51-2.91 3.89-.77 7.82-1.3 11.77-1.68 1.97-.2 3.95-.3 5.93-.42 1.98-.03 3.96-.16 5.95-.08 3.96 0 7.92.31 11.85.81-1.98.04-3.95-.08-5.93 0-1.97 0-3.94.02-5.91.13-3.93.15-7.86.39-11.78.78-3.92.34-7.83.84-11.73 1.39C280.03 607.88 276.15 608.54 272.27 609.31zM344.74 603.74c-1.64-.31-3.28-.59-4.94-.79-1.65-.24-3.3-.43-4.95-.59-3.31-.31-6.62-.57-9.94-.72-3.32-.16-6.64-.23-9.97-.27-3.33-.04-6.66.04-10.01.03 1.65-.24 3.32-.43 4.98-.62 1.67-.11 3.34-.27 5.01-.34 3.34-.18 6.7-.15 10.05-.01 3.35.19 6.69.47 10 1.01C338.27 601.97 341.57 602.63 344.74 603.74zM451.5 583.97l-10.32.69-10.3.73-20.6 1.58c1.69-.36 3.39-.67 5.09-.97 1.71-.27 3.41-.53 5.12-.76 3.42-.48 6.86-.8 10.3-1.07 3.44-.24 6.89-.42 10.35-.45C444.6 583.69 448.05 583.71 451.5 583.97zM411.42 583.72c-3.93.49-7.82 1.08-11.7 1.78-3.88.7-7.74 1.46-11.57 2.37-3.84.86-7.64 1.87-11.43 2.96-1.9.52-3.78 1.12-5.65 1.74-1.9.55-3.73 1.28-5.63 1.86 3.57-1.71 7.23-3.24 10.99-4.49 1.86-.69 3.78-1.2 5.67-1.79 1.92-.5 3.83-1.03 5.76-1.46 3.87-.88 7.77-1.62 11.7-2.1C403.51 584.07 407.46 583.71 411.42 583.72zM344.64 608.13c2.65-2.05 5.58-3.71 8.55-5.26 2.97-1.55 6.06-2.87 9.18-4.1 3.14-1.18 6.31-2.27 9.54-3.14 1.61-.46 3.24-.83 4.86-1.25 1.64-.34 3.28-.69 4.92-.97-3.17 1.06-6.36 2.03-9.51 3.12-3.15 1.08-6.28 2.19-9.38 3.39-3.1 1.19-6.17 2.47-9.21 3.81-1.52.67-3.03 1.37-4.52 2.12C347.57 606.54 346.1 607.32 344.64 608.13zM238.86 616.51c3.19-1.33 6.47-2.44 9.76-3.48 3.29-1.05 6.62-1.97 9.97-2.82 3.35-.83 6.72-1.61 10.12-2.22 1.7-.32 3.4-.61 5.1-.89 1.71-.25 3.42-.49 5.14-.68l-20.06 4.97-10.01 2.54L238.86 616.51z"></path><path fill="#184655" d="M289.39,625.7c2.07-6.48,1.26-13.87-2.18-19.73c5.19-0.57,10.38-1.15,15.57-1.72     c3.43,5.87,4.25,13.26,2.18,19.73c-2.03-1.48-4.28-3.02-6.73-4.58C295.5,621.53,292.55,623.65,289.39,625.7z"></path><rect width="22.23" height="5.76" x="334.27" y="609.51" fill="#701c60" transform="rotate(-9.154 345.297 612.266)"></rect><path fill="#f7cc7f" d="M321.3,457.8c2.65,11.69,4.94,23.44,7.11,35.21c1.12,5.88,2.11,11.78,3.16,17.67l2.95,17.7l2.76,17.73     c0.85,5.92,1.77,11.83,2.55,17.77c1.64,11.85,3.15,23.73,4.3,35.66c-2.65-11.69-4.95-23.44-7.12-35.21     c-1.12-5.88-2.1-11.78-3.16-17.67l-2.95-17.7l-2.76-17.73c-0.85-5.92-1.77-11.83-2.55-17.77     C323.97,481.61,322.46,469.73,321.3,457.8z"></path><g><rect width="140.77" height="10.81" x="421.38" y="756.16" fill="#fec65e"></rect><polygon fill="#fe875e" points="492.12 741.47 422.09 756.16 562.15 756.16"></polygon><rect width="28.46" height="12.31" x="477.89" y="731.39" fill="#fec65e"></rect><rect width="28.46" height="12.31" x="477.9" y="706.75" fill="#fec65e"></rect><rect width="16.73" height="12.31" x="483.76" y="719.08" fill="#fe875e"></rect><path fill="#fae0b2" d="M466.56 685.32l-5.44-2.39c-1.03-.45-2.23.01-2.68 1.04l-8.14 18.49c-.45 1.03.01 2.23 1.04 2.68l5.44 2.39c1.03.45 2.23-.01 2.68-1.04L467.6 688C468.05 686.98 467.59 685.78 466.56 685.32zM537.63 523.84l-5.44-2.39c-1.03-.45-1.49-1.65-1.04-2.68l8.14-18.49c.45-1.03 1.65-1.49 2.68-1.04l5.44 2.39c1.03.45 1.49 1.65 1.04 2.68l-8.14 18.49C539.85 523.83 538.66 524.3 537.63 523.84z"></path><path fill="#fec65e" d="M489.89,708.66c-14.97,0-29.91-3.11-44.03-9.33c-1.68-0.74-2.45-2.71-1.71-4.39      c0.74-1.68,2.71-2.45,4.39-1.71c25.11,11.05,53.02,11.66,78.59,1.72c25.57-9.94,45.74-29.25,56.79-54.36      c22.82-51.84-0.8-112.57-52.64-135.39c-1.68-0.74-2.45-2.71-1.71-4.39c0.74-1.68,2.71-2.45,4.39-1.71      c55.2,24.29,80.34,88.97,56.05,144.17c-11.77,26.74-33.25,47.3-60.48,57.88C516.7,706.17,503.28,708.66,489.89,708.66z"></path><path fill="#466eb6" d="M418.54 651.29c.28 5.5 0 15.22 0 15.22l-.02.02c-18.2-17.53-29.53-42.12-29.53-69.38 0-2.64.11-5.26.32-7.84h.02c0 .56.13 4.44 3.68 7.84 3.83 3.66 5.48 5.02 8.23 6.54 2.75 1.52 10.97 6.45 10.97 6.45s1.67.54 6.32 6.58c4.65 6.04 9.05 8.25 10.15 11.54 1.1 3.29 3.29 6.3 3.29 6.3s-8.23 11.26-9.87 12.36C420.47 648 418.28 645.81 418.54 651.29zM519.78 680.38c1.06 5.69 3.55 5.09 3.87 4.98v.02c-11.78 5.13-24.78 7.99-38.44 7.99 0 0 3.29-4.76 5.95-10.24 2.64-5.5-.45-3.85-1.56-14.83s0 0 .69-1.65c.71-1.65 1.49-6.58 0-10.97-1.36-4.03-.24-3.44-.02-3.31-.63-.56-10.65-9.48-13.85-14.72-1.21-2.01-1.84-3.01-2.12-3.42.13-1.06.48-4.33.48-6.54 0-2.19-6.02-1.08-7.66-1.08-1.67 0-8.25 1.65-12.68 2.19-4.46.54-7.08 11.52-7.08 8.23 0-3.29-2.75-2.19-3.85-2.47-1.08-.26-2.73-3.57-3.83-6.3-1.1-2.75-2.75-1.65-4.94-4.39-2.21-2.75-3.85-3.85-6.04-9.89-2.21-6.02-3.85-3.83-8.23-12.62-4.39-8.77 0 0 1.08-4.2 1.1-4.2 2.75-2.38 6.65-5.67 3.87-3.29 5.43-1.1 5.43-1.1s3.83 2.75 6.04 6.78c2.19 4.03 9.33 3.12 9.33 3.12s0 0-1.65-4.94c-.39-1.15-.58-1.77-.69-2.08l-.09-.28c-.06-.19-.17-.48-.32-.95-1.1-3.29-7.68-11.52-2.19-17.55 5.48-6.04 5.48-3.83 9.33-9.87 3.83-6.04 7.68-4.39 12.06-3.85 4.39.56 3.31.56 10.43 0 7.14-.54 8.23-.54 10.43-8.23 2.19-7.68 0 0-1.1-7.14-1.1-7.12 0-6.02 0-12.12 0-6.1-2.75-.5-6.58 0-3.85.48-4.94.61-7.14 2.25-2.19 1.65-5.48 6.04-9.87 7.14-4.39 1.08-2.75 0-8.79-2.23-6.04-2.23 0-5.45 1.1-10.39 1.1-4.96 5.32 0 5.32 0s1.82-2.21 5.11-4.39c3.29-2.21 5.48-1.1 10.97-4.46 5.48-3.36 2.19 1.71 9.87 0 7.68-1.71 4.39-3.59 4.39-3.59v-3.57c0 0-5.5.65-10.43.09-4.94-.54-13.72 1.1-21.39 4.7-7.68 3.59-4.96 2.45-7.14.87-2.19-1.58-14.83-.61-22.45 0 15.95-11.78 35.67-18.72 57.02-18.72 26.23 0 50.02 10.48 67.36 27.51-1.26-1.06-13.03 3.25-14.14 6.52-1.08 3.29.56 4.39-3.29 8.23-3.83 3.85-3.83 3.85-12.62 7.14-8.79 3.29-7.68-1.65-12.62 6.04-4.94 7.66-6.04 9.31-4.94 13.16 1.1 3.83-.56 10.43 7.12 8.23 7.68-2.19 4.96-9.33 13.18-6.58s15.78 3.29 15.78 3.29-2.86-8.23 0-9.87c2.88-1.65 8.12 1.08 11.54 3.83 3.42 2.75 3.42 2.21 5.61 5.5 2.19 3.29 4.39 4.72 6.04 4.26 1.65-.43 7.68-9.2 7.68-9.2l3.55-5.24c3.1 8.38 5.07 17.32 5.71 26.6h-.02c-5.95-3.81-7.06-3.27-16.39-3.27-9.33 0-10.43 2.14-18.66-.02-8.23-2.16-7.68-3.81-17.55-3.27-9.87.54-8.23-1.23-14.26 3.23-6.04 4.46-9.33-.11-10.97 10.13-1.65 10.24-4.39 8.59 0 17.38 4.39 8.77 4.39 7.12 8.77 15.91 4.39 8.79 7.68 1.65 6.04 14.26-1.65 12.62-1.65 14.83-1.65 17.01 0 2.21-1.1 8.79-1.1 11.54C515.38 675.99 518.65 674.26 519.78 680.38zM519.24 543.73v-8.77c-3.29 0 1.65-3.85-3.29 0-4.94 3.83-6.58 8.23-7.68 9.87s-3.68 2.75-3.68 2.75L519.24 543.73z"></path><path fill="#50bfa5" d="M490.3 666.66c-.69 1.65-1.8-9.33-.69 1.65s4.2 9.33 1.56 14.83c-2.66 5.48-5.95 10.24-5.95 10.24-25.91 0-49.4-10.22-66.69-26.84l.02-.02c0 0 .28-9.72 0-15.22-.26-5.48 1.93-3.29 3.57-4.37 1.65-1.1 9.87-12.36 9.87-12.36s-2.19-3.01-3.29-6.3c-1.1-3.29-5.5-5.5-10.15-11.54-4.65-6.04-6.32-6.58-6.32-6.58s-8.23-4.94-10.97-6.45c-2.75-1.52-4.39-2.88-8.23-6.54-3.55-3.4-3.68-7.27-3.68-7.84h-.02c2.29-28.57 17.08-53.62 38.88-69.66 7.62-.61 20.26-1.58 22.45 0 2.19 1.58-.54 2.73 7.14-.87 7.66-3.59 16.45-5.24 21.39-4.7 4.94.56 10.43-.09 10.43-.09v3.57c0 0 3.29 1.88-4.39 3.59-7.68 1.71-4.39-3.36-9.87 0-5.5 3.36-7.68 2.25-10.97 4.46-3.29 2.19-5.11 4.39-5.11 4.39s-4.22-4.96-5.32 0c-1.1 4.94-7.14 8.16-1.1 10.39 6.04 2.23 4.39 3.31 8.79 2.23 4.39-1.1 7.68-5.5 9.87-7.14 2.21-1.65 3.29-1.77 7.14-2.25 3.83-.5 6.58-6.1 6.58 0 0 6.1-1.1 5 0 12.12 1.1 7.14 3.29-.54 1.1 7.14-2.21 7.68-3.29 7.68-10.43 8.23-7.12.56-6.04.56-10.43 0-4.37-.54-8.23-2.19-12.06 3.85-3.85 6.04-3.85 3.83-9.33 9.87-5.5 6.04 1.08 14.26 2.19 17.55.15.48.26.76.32.95l.09.28c.11.3.3.93.69 2.08 1.65 4.94 1.65 4.94 1.65 4.94s-7.14.91-9.33-3.12c-2.21-4.03-6.04-6.78-6.04-6.78s-1.56-2.19-5.43 1.1c-3.9 3.29-5.54 1.47-6.65 5.67-1.08 4.2-5.48-4.57-1.08 4.2 4.37 8.79 6.02 6.6 8.23 12.62 2.19 6.04 3.83 7.14 6.04 9.89 2.19 2.75 3.83 1.65 4.94 4.39 1.1 2.73 2.75 6.04 3.83 6.3 1.1.28 3.85-.82 3.85 2.47 0 3.29 2.62-7.68 7.08-8.23 4.44-.54 11.02-2.19 12.68-2.19 1.65 0 7.66-1.1 7.66 1.08 0 2.21-.35 5.48-.48 6.54-.15-.22-.22-.28-.24-.26 0 .09.17.48.17.58.02-.02.04-.15.07-.32.28.41.91 1.41 2.12 3.42 3.2 5.24 13.23 14.16 13.85 14.72-.22-.13-1.34-.71.02 3.31C491.79 660.08 491.01 665.01 490.3 666.66zM523.65 685.36c-.32.11-2.81.71-3.87-4.98-1.13-6.13-4.39-4.39-4.39-7.12 0-2.75 1.1-9.33 1.1-11.54 0-2.19 0-4.39 1.65-17.01 1.65-12.62-1.65-5.48-6.04-14.26-4.37-8.79-4.37-7.14-8.77-15.91-4.39-8.79-1.65-7.14 0-17.38 1.65-10.24 4.94-5.67 10.97-10.13 6.04-4.46 4.39-2.68 14.26-3.23 9.87-.54 9.33 1.1 17.55 3.27 8.23 2.16 9.33.02 18.66.02 9.33 0 10.43-.54 16.39 3.27h.02c.15 2.25.24 4.5.24 6.8 0 39.48-23.77 73.4-57.77 88.23V685.36zM515.95 534.97c4.94-3.85 0 0 3.29 0v8.77l-14.65 3.85c0 0 2.58-1.1 3.68-2.75S511.01 538.8 515.95 534.97zM575.47 563.73v.02l-3.55 5.24c0 0-6.04 8.77-7.68 9.2-1.65.45-3.85-.97-6.04-4.26-2.19-3.29-2.19-2.75-5.61-5.5-3.42-2.75-8.66-5.48-11.54-3.83-2.86 1.65 0 9.87 0 9.87s-7.55-.54-15.78-3.29-5.5 4.39-13.18 6.58c-7.68 2.21-6.02-4.39-7.12-8.23-1.1-3.85 0-5.5 4.94-13.16 4.94-7.68 3.83-2.75 12.62-6.04 8.79-3.29 8.79-3.29 12.62-7.14 3.85-3.83 2.21-4.94 3.29-8.23 1.1-3.27 12.88-7.58 14.14-6.52 0 .02.02.02.02.02C562.62 538.32 570.5 550.31 575.47 563.73z"></path></g><g><path fill="#fae0b2" d="M268.85,746.7c0,0,2.74,8.95-0.11,19.94l-9.55-0.8l-27.14-2.07v-0.01c0,0,0.82-4.34,0.82-9.41       c0-4.67-0.82-9.42-0.82-9.42l26.75,1.27L268.85,746.7z"></path><path fill="#f79c8d" d="M271.71,742.51c0,0,5.31,12.36,0,28.35l-40.38-2.66c-0.87-0.06-1.55-1.09-1.52-2.32       c0.04-1.21,0.75-2.15,1.6-2.15c0.03,0,0.04,0,0.07,0l0.57,0.04l27.14,2.07l9.55,0.8c2.85-10.99,0.11-19.94,0.11-19.94       l-10.05-0.51l-26.75-1.27l-0.65-0.04c-0.86-0.04-1.54-1.03-1.54-2.23c0-1.22,0.72-2.23,1.58-2.23c0.03,0,0.04,0,0.07,0       L271.71,742.51z"></path><polygon fill="#f47458" points="392.15 738.64 388.29 738.64 271.71 742.51 231.52 740.42 348.83 738.09"></polygon><path fill="#f47458" d="M392.15,738.64c0,0,5.61,16.57,0.63,28.88h-4.48l-116.58,3.34c5.31-15.99,0-28.35,0-28.35l116.58-3.87       H392.15z"></path><path fill="#e5bd83" d="M269.47 752.38c-4.21.2-8.39.06-12.57-.15-4.18-.25-8.36-.58-12.51-1.24 4.21-.2 8.39-.06 12.57.15C261.14 751.39 265.31 751.72 269.47 752.38zM248.02 759.09c-2.34.21-4.65.09-6.96-.11-2.3-.23-4.59-.55-6.86-1.2 2.34-.21 4.66-.09 6.96.11C243.47 758.13 245.76 758.44 248.02 759.09z"></path><path fill="#f8c558" d="M251.11 762.59c-1.74-2.69-1.41-8.82.6-11.31 3.53.19 7.06.37 10.59.56-2.01 2.49-2.33 8.62-.6 11.31-2.18-.84-4.29-1.9-6.25-3.09C253.89 761.05 252.46 761.93 251.11 762.59zM281.56 770.54c4.99-12.3-.61-28.36-.61-28.36h10.9c0 0 5.61 16.05.61 28.36H281.56zM373.13 768.05c4.99-12.3-.61-28.36-.61-28.36h10.9c0 0 5.61 16.05.61 28.36H373.13z"></path><path fill="#fae0b2" d="M344.58,718.11c0,0-3.85,8.95,0.14,19.94l15.17-0.83l38.05-2.07v-0.01c0,0-1.15-4.34-1.15-9.41       c0-4.67,1.15-9.42,1.15-9.42v-0.01l-37.5,1.28L344.58,718.11z"></path><path fill="#50bfa5" d="M398.74,735.1l-0.8,0.04l-38.05,2.07l-15.17,0.83c-4-10.99-0.14-19.94-0.14-19.94l15.86-0.55l37.5-1.28       l0.9-0.03c1.21-0.04,2.15-1.03,2.15-2.23c0-1.22-1-2.23-2.22-2.23c-0.04,0-0.06,0-0.1,0l-56.33,2.08c0,0-7.44,12.36,0,28.35       l56.6-2.66c1.22-0.06,2.16-1.09,2.13-2.32c-0.04-1.21-1.05-2.15-2.24-2.15C398.8,735.1,398.77,735.1,398.74,735.1z"></path><polygon fill="#3c8f7c" points="398.68 711.8 244.32 709.85 245.17 709.89 342.35 713.88"></polygon><path fill="#3c8f7c" d="M340.47,713.81l-95.3-3.92c-4.75-0.19-8.71,3.6-8.73,8.36l-0.06,11.87c-0.03,4.54,3.55,8.28,8.08,8.45       l97.9,3.67c-7.44-15.99,0-28.35,0-28.35L340.47,713.81z"></path><path fill="#e5bd83" d="M344.86 725.78c2.94.21 5.87.24 8.8.21 2.93-.02 5.85-.14 8.77-.29 2.92-.18 5.84-.38 8.75-.68 2.91-.29 5.82-.65 8.73-1.18-2.94-.21-5.87-.24-8.8-.21-2.93.02-5.85.14-8.77.29-2.92.18-5.84.38-8.75.68C350.67 724.89 347.76 725.25 344.86 725.78zM375.95 730.47c3.26.21 6.49.09 9.72-.11 3.23-.23 6.45-.55 9.65-1.2-3.26-.21-6.49-.09-9.72.11C382.37 729.5 379.15 729.82 375.95 730.47z"></path><path fill="#f47458" d="M370.73,743.29c2.97-4.38,2.67-14.77-0.55-18.96c-5.84,0.17-11.46,0.89-17.3,1.06      c3.22,4.2,3.31,14.04,0.33,18.41c3.63-1.3,7.16-2.98,10.44-4.87C366.21,740.65,368.53,742.16,370.73,743.29z"></path><g><path fill="#355389" d="M288.19,685.04l2.76,0.25c-6.87,0.49-12.03,6.44-11.54,13.31l0.27,3.8c0.41,5.73,4.64,10.28,10.02,11.33       l-44.34-3.56c-7.39-0.72-12.78-7.32-12.02-14.7l0.21-2.04c0.75-7.28,7.2-12.61,14.5-11.96l0.01,0L288.19,685.04z"></path><polygon fill="#355389" points="394.96 682.92 290.95 685.29 288.19 685.04 248.06 681.46 248.05 681.46 247.57 681.42"></polygon><path fill="#466eb6" d="M391.97,687.11l-100.8,2.64c-2.27,0.19-4.33,1.32-5.73,3.16c-1.21,1.61-1.7,3.64-1.56,5.65l0.26,3.51       c0.29,4.09,3.73,7.36,7.82,7.42c0.23,0,0.47-0.01,0.71-0.02l0.11-0.01l99.33-2.25l2.47-0.06c1.16-0.03,2.11,0.93,2.09,2.09       l-0.01,0.37c-0.02,1.1-0.9,1.99-2,2.02L293,713.93c-1.13,0.08-2.24,0.01-3.3-0.2c-5.38-1.05-9.61-5.6-10.02-11.33l-0.27-3.8       c-0.49-6.87,4.67-12.82,11.54-13.31l104.01-2.37c1.16-0.03,2.11,0.92,2.09,2.09c-0.02,1.1-0.89,1.99-1.99,2.02L391.97,687.11z"></path><path fill="#fae0b2" d="M392.11,707.21l-99.33,2.25l-0.11,0.01c-0.23,0.01-0.47,0.03-0.71,0.02c-4.09-0.07-7.53-3.33-7.82-7.42       l-0.26-3.51c-0.15-2.01,0.35-4.04,1.56-5.65c1.4-1.85,3.45-2.98,5.73-3.16l100.8-2.64c-0.04,0.18-1.31,6.18-1.38,10.03       C390.54,700.97,392.11,707.21,392.11,707.21z"></path><path fill="#e5bd83" d="M292.62 695.57c2.91-.49 5.82-.79 8.74-1.04 2.92-.26 5.84-.41 8.76-.55 2.92-.1 5.85-.18 8.78-.15 2.93.02 5.86.09 8.8.35-2.91.49-5.82.8-8.74 1.04-2.92.26-5.84.41-8.76.54-2.92.1-5.85.18-8.78.15C298.49 695.91 295.56 695.83 292.62 695.57zM316.67 703.75c2.91-.49 5.82-.79 8.74-1.04 2.92-.26 5.84-.41 8.76-.55 2.92-.1 5.85-.18 8.78-.15 2.93.02 5.86.09 8.8.35-2.91.49-5.82.8-8.74 1.04-2.92.26-5.84.41-8.76.54-2.92.1-5.85.18-8.78.15C322.54 704.08 319.61 704 316.67 703.75z"></path><path fill="#50bfa5" d="M320.63,718.92c4.04-5.41,4.3-18.79,0.43-24.32c-7.45-0.12-14.08,0.67-21.53,0.55      c3.87,5.53,2.77,18.01-1.27,23.42c4.71-1.45,9.29-3.38,13.59-5.6C315.02,715.3,317.89,717.36,320.63,718.92z"></path><path fill="#e5bd83" d="M342.42,698.52c4-0.49,8.01-0.79,12.02-1.04c4.01-0.26,8.02-0.41,12.04-0.54c4.01-0.1,8.03-0.18,12.05-0.15      c4.02,0.02,8.04,0.09,12.06,0.35c-4,0.49-8.01,0.8-12.02,1.04c-4.01,0.26-8.02,0.41-12.04,0.54c-4.01,0.1-8.03,0.17-12.05,0.15      C350.47,698.85,346.45,698.77,342.42,698.52z"></path></g><g><path fill="#fae0b2" d="M674.09,745.81c0,0-3.85,8.95,0.14,19.94l15.17-0.83l38.05-2.07v-0.01c0,0-1.15-4.34-1.15-9.41       c0-4.67,1.15-9.42,1.15-9.42v-0.01l-37.5,1.28L674.09,745.81z"></path><path fill="#50bfa5" d="M728.25,762.79l-0.8,0.04l-38.05,2.07l-15.17,0.83c-4-10.99-0.14-19.94-0.14-19.94l15.86-0.55l37.5-1.28       l0.9-0.03c1.21-0.04,2.15-1.03,2.15-2.23c0-1.22-1-2.23-2.22-2.23c-0.04,0-0.06,0-0.1,0l-56.33,2.08c0,0-7.44,12.36,0,28.35       l56.6-2.66c1.22-0.06,2.16-1.09,2.13-2.32c-0.04-1.21-1.05-2.15-2.24-2.15C728.31,762.79,728.28,762.79,728.25,762.79z"></path><polygon fill="#3c8f7c" points="728.19 739.5 573.83 737.55 574.68 737.58 671.86 741.58"></polygon><path fill="#3c8f7c" d="M669.98,741.5l-95.3-3.92c-4.75-0.19-8.71,3.6-8.73,8.36l-0.06,11.87c-0.03,4.54,3.55,8.28,8.08,8.45       l97.9,3.67c-7.44-15.99,0-28.35,0-28.35L669.98,741.5z"></path><path fill="#e5bd83" d="M674.37 753.47c2.94.21 5.87.24 8.8.21 2.93-.02 5.85-.14 8.77-.29 2.92-.18 5.84-.38 8.75-.68 2.91-.29 5.82-.65 8.72-1.18-2.94-.21-5.87-.24-8.8-.21-2.93.02-5.85.14-8.77.29-2.92.18-5.84.38-8.75.68C680.18 752.59 677.27 752.94 674.37 753.47zM705.46 758.16c3.26.21 6.49.09 9.72-.11 3.23-.23 6.45-.55 9.65-1.2-3.26-.21-6.49-.09-9.72.11C711.88 757.2 708.66 757.51 705.46 758.16z"></path><path fill="#f47458" d="M700.24,770.99c2.97-4.38,2.67-14.77-0.55-18.96c-5.84,0.17-11.46,0.89-17.3,1.06      c3.22,4.2,3.31,14.04,0.33,18.41c3.63-1.3,7.16-2.98,10.44-4.87C695.72,768.35,698.04,769.86,700.24,770.99z"></path></g><g><path fill="#355389" d="M617.7,712.73l2.76,0.25c-6.87,0.49-12.03,6.44-11.54,13.31l0.27,3.8c0.41,5.73,4.64,10.28,10.02,11.33       l-44.35-3.56c-7.39-0.72-12.78-7.32-12.01-14.7l0.21-2.04c0.75-7.28,7.2-12.61,14.5-11.96l0.01,0L617.7,712.73z"></path><polygon fill="#355389" points="724.47 710.62 620.46 712.98 617.7 712.73 577.57 709.16 577.56 709.16 577.08 709.12"></polygon><path fill="#466eb6" d="M721.48,714.81l-100.8,2.64c-2.27,0.19-4.33,1.32-5.73,3.16c-1.21,1.61-1.7,3.64-1.56,5.65l0.26,3.51       c0.29,4.09,3.73,7.36,7.82,7.42c0.23,0,0.47-0.01,0.71-0.02l0.11-0.01l99.33-2.25l2.47-0.06c1.16-0.03,2.11,0.93,2.09,2.09       l-0.01,0.37c-0.02,1.1-0.9,1.99-2,2.02l-101.67,2.3c-1.13,0.08-2.24,0.01-3.3-0.2c-5.38-1.05-9.61-5.6-10.02-11.33l-0.27-3.8       c-0.49-6.87,4.67-12.82,11.54-13.31l104.01-2.37c1.16-0.03,2.11,0.92,2.09,2.09c-0.02,1.1-0.89,1.99-1.99,2.02L721.48,714.81z"></path><path fill="#fae0b2" d="M721.62,734.91l-99.33,2.25l-0.11,0.01c-0.23,0.01-0.47,0.03-0.71,0.02c-4.09-0.07-7.53-3.33-7.82-7.42       l-0.26-3.51c-0.15-2.01,0.35-4.04,1.56-5.65c1.4-1.85,3.45-2.98,5.73-3.16l100.8-2.64c-0.04,0.18-1.31,6.18-1.38,10.03       C720.05,728.67,721.62,734.91,721.62,734.91z"></path><path fill="#e5bd83" d="M622.13 723.27c2.91-.49 5.82-.79 8.74-1.04 2.92-.26 5.84-.41 8.76-.55 2.92-.1 5.85-.18 8.78-.15 2.93.02 5.86.09 8.8.35-2.91.49-5.82.8-8.74 1.04-2.92.26-5.84.41-8.76.54-2.92.1-5.85.18-8.78.15C628 723.6 625.07 723.52 622.13 723.27zM646.18 731.45c2.91-.49 5.82-.79 8.74-1.04 2.92-.26 5.84-.41 8.76-.55 2.92-.1 5.85-.18 8.78-.15 2.93.02 5.86.09 8.8.35-2.91.49-5.82.8-8.74 1.04-2.92.26-5.84.41-8.76.54-2.92.1-5.85.18-8.78.15C652.05 731.78 649.12 731.7 646.18 731.45z"></path><path fill="#50bfa5" d="M650.14,746.62c4.04-5.41,4.3-18.79,0.43-24.32c-7.45-0.12-14.08,0.67-21.53,0.55      c3.87,5.53,2.77,18.01-1.27,23.42c4.71-1.45,9.29-3.38,13.59-5.6C644.53,743,647.4,745.06,650.14,746.62z"></path><path fill="#e5bd83" d="M671.93,726.22c4-0.49,8.01-0.79,12.02-1.04c4.01-0.26,8.02-0.41,12.04-0.54c4.01-0.1,8.03-0.18,12.05-0.15      c4.02,0.02,8.04,0.09,12.06,0.35c-4,0.49-8.01,0.8-12.02,1.04c-4.01,0.26-8.02,0.41-12.04,0.54c-4.01,0.1-8.03,0.17-12.05,0.15      C679.98,726.55,675.96,726.47,671.93,726.22z"></path></g><g><path fill="#fae0b2" d="M586,665.96h130.56c0,0-2.28,9.45-2.28,19.72c0,9.98,2.28,19.72,2.28,19.72H586       c-4.63,0-8.39-3.75-8.39-8.39v-22.66C577.61,669.71,581.37,665.96,586,665.96z"></path><path fill="#184655" d="M718.32,660.59c1.48,0,2.68,1.21,2.68,2.68c0,0.74-0.29,1.41-0.79,1.9c-0.48,0.49-1.15,0.79-1.9,0.79       h-1.76H586c-4.63,0-8.39,3.75-8.39,8.39v22.66c0,4.63,3.75,8.39,8.39,8.39h130.56h1.76c1.48,0,2.68,1.2,2.68,2.68       c0,0.74-0.29,1.4-0.79,1.9c-0.48,0.48-1.15,0.79-1.9,0.79H586c-7.6,0-13.75-6.16-13.75-13.75v-22.67       c0-7.59,6.15-13.75,13.75-13.75H718.32z"></path><path fill="#e5bd83" d="M594.61 673.59c7.73-.35 15.46-.58 23.19-.69 7.73-.14 15.46-.18 23.19-.2 7.73.02 15.46.05 23.19.2 7.73.12 15.46.35 23.19.7-7.73.35-15.46.58-23.19.7-7.73.14-15.46.18-23.19.2-7.73-.02-15.46-.06-23.19-.2C610.07 674.17 602.34 673.94 594.61 673.59zM589.77 685.68c2.92-.37 5.84-.56 8.76-.69 2.92-.14 5.84-.18 8.76-.2 2.92.02 5.84.05 8.76.2 2.92.13 5.84.33 8.76.7-2.92.37-5.84.57-8.76.7-2.92.14-5.84.18-8.76.2-2.92-.02-5.84-.06-8.76-.2C595.62 686.24 592.7 686.05 589.77 685.68zM612.14 698.07c2.92-.37 5.84-.56 8.76-.7 2.92-.14 5.84-.18 8.76-.2 2.92.02 5.84.05 8.76.2 2.92.13 5.84.33 8.76.7-2.92.37-5.84.57-8.76.7-2.92.14-5.84.18-8.76.2-2.92-.02-5.84-.06-8.76-.2C617.98 698.63 615.06 698.44 612.14 698.07zM630.58 690.82c6.75-.35 13.5-.58 20.25-.69 6.75-.14 13.5-.18 20.25-.2 6.75.02 13.5.05 20.25.2 6.75.12 13.5.35 20.25.7-6.75.35-13.5.58-20.25.7-6.75.14-13.5.18-20.25.2-6.75-.02-13.5-.06-20.25-.2C644.08 691.39 637.33 691.16 630.58 690.82z"></path><path fill="#50bfa5" d="M616.97,709.55c-3.95-7.47-3.95-16.41,0-23.87c-7.45,0-14.91,0-22.36,0c-3.95,7.47-3.95,16.41,0,23.87      c2.65-2.03,5.6-4.17,8.83-6.36C607.66,705.38,612.17,707.52,616.97,709.55z"></path></g><g><path fill="#fae0b2" d="M691.77,536.4H561.21c0,0,2.28,9.45,2.28,19.72c0,9.98-2.28,19.72-2.28,19.72h130.56       c4.63,0,8.39-3.75,8.39-8.39V544.8C700.16,540.16,696.41,536.4,691.77,536.4z"></path><path fill="#184655" d="M559.45,531.04c-1.48,0-2.68,1.21-2.68,2.68c0,0.74,0.3,1.41,0.79,1.9c0.48,0.49,1.15,0.79,1.9,0.79h1.76       h130.56c4.63,0,8.39,3.75,8.39,8.39v22.66c0,4.63-3.75,8.39-8.39,8.39H561.21h-1.76c-1.48,0-2.68,1.2-2.68,2.68       c0,0.74,0.3,1.4,0.79,1.9c0.48,0.48,1.15,0.79,1.9,0.79h132.32c7.6,0,13.75-6.16,13.75-13.75v-22.67       c0-7.59-6.15-13.75-13.75-13.75H559.45z"></path><path fill="#e5bd83" d="M683.16 544.04c-7.73-.35-15.46-.58-23.19-.69-7.73-.14-15.46-.18-23.19-.2-7.73.02-15.46.05-23.19.2-7.73.12-15.46.35-23.19.7 7.73.35 15.46.58 23.19.7 7.73.14 15.46.18 23.19.2 7.73-.02 15.46-.06 23.19-.2C667.7 544.61 675.43 544.38 683.16 544.04zM688 556.12c-2.92-.37-5.84-.56-8.76-.69-2.92-.14-5.84-.18-8.76-.2-2.92.02-5.84.05-8.76.2-2.92.13-5.84.33-8.76.7 2.92.37 5.84.57 8.76.7 2.92.14 5.84.18 8.76.2 2.92-.02 5.84-.06 8.76-.2C682.16 556.69 685.08 556.49 688 556.12zM665.64 568.51c-2.92-.37-5.84-.56-8.76-.7-2.92-.14-5.84-.18-8.76-.2-2.92.02-5.84.05-8.76.2-2.92.13-5.84.33-8.76.7 2.92.37 5.84.57 8.76.7 2.92.14 5.84.18 8.76.2 2.92-.02 5.84-.06 8.76-.2C659.79 569.08 662.71 568.88 665.64 568.51zM647.19 561.26c-6.75-.35-13.5-.58-20.25-.69-6.75-.14-13.5-.18-20.25-.2-6.75.02-13.5.05-20.25.2-6.75.12-13.5.35-20.25.7 6.75.35 13.5.58 20.25.7 6.75.14 13.5.18 20.25.2 6.75-.02 13.5-.06 20.25-.2C633.69 561.84 640.44 561.61 647.19 561.26z"></path><path fill="#50bfa5" d="M660.8,580c3.95-7.47,3.95-16.41,0-23.87c7.45,0,14.91,0,22.36,0c3.95,7.47,3.95,16.41,0,23.87      c-2.65-2.03-5.6-4.17-8.83-6.36C670.11,575.82,665.6,577.97,660.8,580z"></path></g><g><path fill="#fae0b2" d="M704.06,486.4H573.5c0,0,2.28,9.45,2.28,19.72c0,9.98-2.28,19.72-2.28,19.72h130.56       c4.63,0,8.39-3.75,8.39-8.39v-22.66C712.44,490.15,708.69,486.4,704.06,486.4z"></path><path fill="#f47458" d="M571.73,481.03c-1.48,0-2.68,1.21-2.68,2.68c0,0.74,0.29,1.41,0.79,1.9c0.48,0.49,1.15,0.79,1.9,0.79       h1.76h130.56c4.63,0,8.39,3.75,8.39,8.39v22.66c0,4.63-3.75,8.39-8.39,8.39H573.5h-1.76c-1.48,0-2.68,1.2-2.68,2.68       c0,0.74,0.29,1.4,0.79,1.9c0.48,0.48,1.15,0.79,1.9,0.79h132.32c7.6,0,13.75-6.16,13.75-13.75v-22.67       c0-7.59-6.15-13.75-13.75-13.75H571.73z"></path><path fill="#e5bd83" d="M695.44 494.03c-7.73-.35-15.46-.58-23.19-.69-7.73-.14-15.46-.18-23.19-.2-7.73.02-15.46.05-23.19.2-7.73.12-15.46.35-23.19.7 7.73.35 15.46.58 23.19.7 7.73.14 15.46.18 23.19.2 7.73-.02 15.46-.06 23.19-.2C679.98 494.61 687.71 494.38 695.44 494.03zM700.28 506.12c-2.92-.37-5.84-.56-8.76-.69-2.92-.14-5.84-.18-8.76-.2-2.92.02-5.84.05-8.76.2-2.92.13-5.84.33-8.76.7 2.92.37 5.84.57 8.76.7 2.92.14 5.84.18 8.76.2 2.92-.02 5.84-.06 8.76-.2C694.44 506.68 697.36 506.49 700.28 506.12zM677.92 518.51c-2.92-.37-5.84-.56-8.76-.69-2.92-.14-5.84-.18-8.76-.2-2.92.02-5.84.05-8.76.2-2.92.13-5.84.33-8.76.7 2.92.37 5.84.57 8.76.7 2.92.14 5.84.18 8.76.2 2.92-.02 5.84-.06 8.76-.2C672.07 519.07 675 518.88 677.92 518.51zM659.47 511.26c-6.75-.35-13.5-.58-20.25-.69-6.75-.14-13.5-.18-20.25-.2-6.75.02-13.5.05-20.25.2-6.75.12-13.5.35-20.25.7 6.75.35 13.5.58 20.25.7 6.75.14 13.5.18 20.25.2 6.75-.02 13.5-.06 20.25-.2C645.97 511.83 652.72 511.6 659.47 511.26z"></path><path fill="#355389" d="M673.08,529.99c3.95-7.47,3.95-16.41,0-23.87c7.45,0,14.91,0,22.36,0c3.95,7.47,3.95,16.41,0,23.87      c-2.65-2.03-5.6-4.17-8.83-6.36C682.4,525.82,677.88,527.96,673.08,529.99z"></path></g><g><rect width="8.31" height="39.45" x="424.95" y="727.17" fill="#fe875e"></rect><rect width="13.84" height="39.45" x="411.11" y="727.17" fill="#f7cc7f"></rect><rect width="96.03" height="39.45" x="433.26" y="727.17" fill="#f7cc7f"></rect><rect width="8.31" height="39.45" x="529.3" y="727.17" fill="#fe875e"></rect><rect width="13.84" height="39.45" x="537.61" y="727.17" fill="#f7cc7f"></rect><path fill="#355389" d="M551.53,738.49c0,0,10.62,5.12,12.33,18.96l-4.55-3.79l-1.61,3.79c0,0-1.04-11.76-6.16-16.31V738.49z"></path><ellipse cx="481.03" cy="746.9" fill="#fe875e" rx="37.68" ry="8.91"></ellipse></g><g><rect width="8.31" height="39.45" x="578.46" y="620.91" fill="#fe875e"></rect><rect width="13.84" height="39.45" x="564.62" y="620.91" fill="#f7cc7f"></rect><rect width="96.03" height="39.45" x="586.77" y="620.91" fill="#f7cc7f"></rect><rect width="8.31" height="39.45" x="682.81" y="620.91" fill="#fe875e"></rect><rect width="13.84" height="39.45" x="691.12" y="620.91" fill="#f7cc7f"></rect><path fill="#355389" d="M705.04,632.23c0,0,10.62,5.12,12.33,18.96l-4.55-3.79l-1.61,3.79c0,0-1.04-11.76-6.16-16.31V632.23z"></path><ellipse cx="634.54" cy="640.63" fill="#fe875e" rx="37.68" ry="8.91"></ellipse></g><g><rect width="8.31" height="39.45" x="702.82" y="581.46" fill="#fe5e5e"></rect><rect width="13.84" height="39.45" x="711.13" y="581.46" fill="#f7b07f"></rect><rect width="96.03" height="39.45" x="606.79" y="581.46" fill="#f7b07f"></rect><rect width="8.31" height="39.45" x="598.48" y="581.46" fill="#fe5e5e"></rect><rect width="13.84" height="39.45" x="584.64" y="581.46" fill="#f7b07f"></rect><path fill="#358988" d="M584.55,592.77c0,0-10.62,5.12-12.33,18.96l4.55-3.79l1.61,3.79c0,0,1.04-11.76,6.16-16.31V592.77z"></path></g><g><path fill="#fae0b2" d="M522.65,705.95c0,0-2.74,8.95,0.11,19.94l9.55-0.8l27.14-2.07v-0.01c0,0-0.82-4.34-0.82-9.41       c0-4.67,0.82-9.42,0.82-9.42l-26.75,1.27L522.65,705.95z"></path><path fill="#f79c8d" d="M519.79,701.76c0,0-5.31,12.36,0,28.35l40.38-2.66c0.87-0.06,1.55-1.09,1.52-2.32       c-0.04-1.21-0.75-2.15-1.6-2.15c-0.03,0-0.04,0-0.07,0l-0.57,0.04l-27.14,2.07l-9.55,0.8c-2.85-10.99-0.11-19.94-0.11-19.94       l10.05-0.51l26.75-1.27l0.65-0.04c0.86-0.04,1.54-1.03,1.54-2.23c0-1.22-0.72-2.23-1.58-2.23c-0.03,0-0.04,0-0.07,0       L519.79,701.76z"></path><polygon fill="#f47458" points="399.36 697.89 403.21 697.89 519.79 701.76 559.99 699.67 442.68 697.34"></polygon><path fill="#f47458" d="M399.36,697.89c0,0-5.61,16.57-0.63,28.88h4.48l116.58,3.34c-5.31-15.99,0-28.35,0-28.35l-116.58-3.87       H399.36z"></path><path fill="#e5bd83" d="M522.04 711.63c4.21.2 8.39.06 12.57-.15 4.18-.25 8.36-.58 12.51-1.24-4.21-.2-8.39-.06-12.57.15C530.37 710.64 526.19 710.97 522.04 711.63zM543.48 718.34c2.34.21 4.65.09 6.96-.11 2.3-.23 4.59-.55 6.86-1.2-2.34-.21-4.66-.09-6.96.11C548.04 717.38 545.75 717.69 543.48 718.34z"></path><path fill="#f8c558" d="M540.39 721.84c1.74-2.69 1.41-8.82-.6-11.31-3.53.19-7.06.37-10.59.56 2.01 2.49 2.33 8.62.6 11.31 2.18-.84 4.29-1.9 6.25-3.09C537.62 720.3 539.04 721.18 540.39 721.84zM509.95 729.79c-4.99-12.3.61-28.36.61-28.36h-10.9c0 0-5.61 16.05-.61 28.36H509.95zM418.38 727.3c-4.99-12.3.61-28.36.61-28.36h-10.9c0 0-5.61 16.05-.61 28.36H418.38z"></path></g><g><path fill="#355389" d="M449.96,672.89l2.76,0.25c-6.87,0.49-12.03,6.44-11.54,13.31l0.27,3.8c0.41,5.73,4.64,10.28,10.02,11.33       l-44.34-3.56c-7.39-0.72-12.78-7.32-12.02-14.7l0.21-2.04c0.75-7.28,7.2-12.61,14.5-11.96l0.01,0L449.96,672.89z"></path><polygon fill="#355389" points="556.73 670.77 452.72 673.14 449.96 672.89 409.83 669.32 409.82 669.32 409.34 669.27"></polygon><path fill="#466eb6" d="M553.74,674.96l-100.8,2.64c-2.27,0.19-4.33,1.32-5.73,3.16c-1.21,1.61-1.7,3.64-1.56,5.65l0.26,3.51       c0.29,4.09,3.73,7.36,7.82,7.42c0.23,0,0.47-0.01,0.71-0.02l0.11-0.01l99.33-2.25l2.47-0.06c1.16-0.03,2.11,0.93,2.09,2.09       l-0.01,0.37c-0.02,1.1-0.9,1.99-2,2.02l-101.67,2.3c-1.13,0.08-2.24,0.01-3.3-0.2c-5.38-1.05-9.61-5.6-10.02-11.33l-0.27-3.8       c-0.49-6.87,4.67-12.82,11.54-13.31l104.01-2.37c1.16-0.03,2.11,0.92,2.09,2.09c-0.02,1.1-0.89,1.99-1.99,2.02L553.74,674.96z"></path><path fill="#fae0b2" d="M553.88,695.06l-99.33,2.25l-0.11,0.01c-0.23,0.01-0.47,0.03-0.71,0.02c-4.09-0.07-7.53-3.33-7.82-7.42       l-0.26-3.51c-0.15-2.01,0.35-4.04,1.56-5.65c1.4-1.85,3.45-2.98,5.73-3.16l100.8-2.64c-0.04,0.18-1.31,6.18-1.38,10.03       C552.31,688.83,553.88,695.06,553.88,695.06z"></path><path fill="#e5bd83" d="M454.39 683.43c2.91-.49 5.82-.79 8.74-1.04 2.92-.26 5.84-.41 8.76-.55 2.92-.1 5.85-.18 8.78-.15 2.93.02 5.86.09 8.8.35-2.91.49-5.82.8-8.74 1.04-2.92.26-5.84.41-8.76.54-2.92.1-5.85.18-8.78.15C460.26 683.76 457.33 683.68 454.39 683.43zM478.44 691.6c2.91-.49 5.82-.79 8.74-1.04 2.92-.26 5.84-.41 8.76-.55 2.92-.1 5.85-.18 8.78-.15 2.93.02 5.86.09 8.8.35-2.91.49-5.82.8-8.74 1.04-2.92.26-5.84.41-8.76.54-2.92.1-5.85.18-8.78.15C484.31 691.93 481.38 691.86 478.44 691.6z"></path><path fill="#50bfa5" d="M482.4,706.78c4.04-5.41,4.3-18.79,0.43-24.32c-7.45-0.12-14.08,0.67-21.53,0.55      c3.87,5.53,2.77,18.01-1.27,23.42c4.71-1.45,9.3-3.38,13.59-5.6C476.79,703.16,479.66,705.21,482.4,706.78z"></path><path fill="#e5bd83" d="M504.2,686.37c4-0.49,8.01-0.79,12.02-1.04c4.01-0.26,8.02-0.41,12.04-0.54c4.01-0.1,8.03-0.18,12.05-0.15      c4.02,0.02,8.04,0.09,12.06,0.35c-4,0.49-8.01,0.8-12.02,1.04c-4.01,0.26-8.02,0.41-12.04,0.54c-4.01,0.1-8.03,0.17-12.05,0.15      C512.24,686.71,508.22,686.63,504.2,686.37z"></path></g><g><path fill="#fae0b2" d="M499.68,649.28c0,0-3.85,8.95,0.14,19.94l15.17-0.83l38.05-2.07v-0.01c0,0-1.15-4.34-1.15-9.41       c0-4.67,1.15-9.42,1.15-9.42v-0.01l-37.5,1.28L499.68,649.28z"></path><path fill="#bf50a7" d="M553.84,666.26l-0.8,0.04l-38.05,2.07l-15.17,0.83c-4-10.99-0.14-19.94-0.14-19.94l15.86-0.55l37.5-1.28       l0.9-0.03c1.21-0.04,2.15-1.03,2.15-2.23c0-1.22-1-2.23-2.22-2.23c-0.04,0-0.06,0-0.1,0l-56.33,2.08c0,0-7.44,12.35,0,28.35       l56.6-2.66c1.22-0.06,2.16-1.09,2.13-2.32c-0.04-1.21-1.05-2.15-2.24-2.15C553.9,666.26,553.87,666.26,553.84,666.26z"></path><polygon fill="#8f3c7d" points="553.78 642.96 399.42 641.02 400.27 641.05 497.45 645.05"></polygon><path fill="#8f3c7d" d="M495.57,644.97l-95.3-3.92c-4.75-0.19-8.71,3.6-8.73,8.36l-0.06,11.87c-0.03,4.54,3.55,8.28,8.08,8.45       l97.9,3.67c-7.44-15.99,0-28.35,0-28.35L495.57,644.97z"></path><path fill="#e5bd83" d="M499.96 656.94c2.94.21 5.87.24 8.8.21 2.93-.02 5.85-.14 8.77-.29 2.92-.18 5.84-.38 8.75-.68 2.91-.29 5.82-.65 8.73-1.18-2.94-.21-5.87-.24-8.8-.21-2.93.02-5.85.14-8.77.29-2.92.18-5.84.38-8.75.68C505.77 656.06 502.86 656.41 499.96 656.94zM531.05 661.63c3.26.21 6.49.09 9.72-.11 3.23-.23 6.45-.55 9.65-1.2-3.26-.21-6.49-.09-9.72.11C537.47 660.67 534.25 660.98 531.05 661.63z"></path><path fill="#f47458" d="M525.83,674.45c2.97-4.38,2.67-14.77-0.55-18.96c-5.84,0.17-11.46,0.89-17.3,1.06      c3.22,4.2,3.31,14.04,0.33,18.41c3.63-1.3,7.16-2.98,10.44-4.87C521.31,671.82,523.62,673.33,525.83,674.45z"></path></g></g><path fill="#171c51" d="M614.15,484.94l47.45,284.76c0.27,1.64,1.69,2.8,3.3,2.8c0.18,0,0.37-0.02,0.56-0.05    c1.83-0.3,3.06-2.03,2.76-3.86l-2.59-15.53h77.17l2.77,16.63c0.27,1.64,1.69,2.8,3.3,2.8c0.18,0,0.37-0.02,0.56-0.05    c1.83-0.3,3.06-2.03,2.76-3.86l-47.45-284.76c-0.3-1.83-2.03-3.07-3.86-2.76c-1.83,0.3-3.06,2.03-2.76,3.86l3.4,20.39h-77.17    l-3.58-21.49c-0.3-1.83-2.03-3.07-3.86-2.76C615.08,481.38,613.84,483.11,614.15,484.94z M632.16,552.21h77.17l5.58,33.46h-77.17    L632.16,552.21z M638.85,592.38h77.17l5.58,33.46h-77.17L638.85,592.38z M645.54,632.55h77.17l5.58,33.46h-77.17L645.54,632.55z     M734.98,706.18h-77.17l-5.58-33.46h77.17L734.98,706.18z M702.63,512.04l5.58,33.46h-77.17l-5.58-33.46H702.63z M664.51,746.35    l-5.58-33.46h77.17l5.58,33.46H664.51z"></path><g><path fill="#13375b" d="M683.98,433.03c-30-4.69-51.16-21.34-51.16-21.34s15.87,2.71,26.97,7.34      C669.62,423.13,683.98,433.03,683.98,433.03z"></path><path fill="#355389" d="M690.64,417.07l-6.66,15.96c0,0-14.36-9.9-24.19-14c-11.1-4.63-26.97-7.34-26.97-7.34l6.66-15.96      l6.66-15.96c0,0,15.56-2.2,28.67,3.27c12.16,5.07,22.5,18.07,22.5,18.07L690.64,417.07z"></path><path fill="#13375b" d="M721.99,416.3l-30.92,0.94l-0.43-0.18l6.66-15.96c0,0-10.34-13-22.5-18.07      c-13.11-5.47-28.67-3.27-28.67-3.27l-6.66,15.96l-0.42-0.17l-21.09-22.64l61.4-0.82L721.99,416.3z"></path><path fill="#355389" d="M678.86,367.64l-59.16,1.1l-1.74,4.17l59.06-0.79c1.5-0.02,2.93,0.58,3.97,1.66l40.99,42.52l1.74-4.17      l-40.85-42.81C681.84,368.22,680.38,367.61,678.86,367.64z"></path><path fill="#fec65e" d="M620.93,401.52c0,0-3.17,3.14-3.77,6.37c-0.6,3.22-0.2,6.49-0.2,6.49l0.72,0.3l0.65-3.58l-0.35,4.94     l1.33,0.06l1.26-6.86l-0.39,5.98c0,0,1.43-0.15,1.6-0.57c0.18-0.42,0.56-5.85,0.56-5.85l-0.2,6.5c0,0,0.66,0.77,3.08-5.04     c2.43-5.81-2.08-9.3-2.08-9.3L620.93,401.52z"></path><g><path fill="#fec65e" d="M655.92,368.07l-4.25,0.08c-0.61-0.34-1.38-0.72-2.26-1.09c-3.97-1.65-10.25-2.99-15.87,1.42      c-0.39,0.31-0.78,0.65-1.17,1.02c-1.1,1.04-2.04,2.13-2.83,3.26c-3.9,5.53-4.35,11.88-4.81,18.54c-0.26,3.62-0.52,7.37-1.38,11      c-0.17,0.73-0.9,1.18-1.63,1c-0.07-0.02-0.15-0.04-0.21-0.07c-0.6-0.25-0.95-0.9-0.8-1.56c0.81-3.42,1.07-7.05,1.31-10.56      c0.43-6.2,0.88-12.56,4.27-18.31c0.86-1.46,1.9-2.88,3.19-4.23c0.32-0.35,0.66-0.69,1.01-1.02c10.73-10.2,24.33-0.64,24.47-0.54      C655.34,367.26,655.64,367.66,655.92,368.07z"></path></g><path fill="#f7f07f" d="M624.96,400.16c0.65,1.42,0.04,3.09-1.38,3.75c-1.42,0.65-3.1,0.04-3.75-1.38     c-0.65-1.42-0.04-3.1,1.38-3.75C622.63,398.12,624.3,398.74,624.96,400.16z"></path></g><g><path fill="#355389" d="M586.77,387.55c8.48-4.21,19.93,2.17,19.93,2.17c-0.59-1.96-5.98-6.2-5.98-6.2     c1.27-1.1,5.38-1.63,5.38-1.63c-7.68-3.01-17.82,1.78-17.82,1.78L586.77,387.55z"></path><path fill="#13375b" d="M586.16,388.4c0,0,1.19,10.87,7.97,15.58c0,0-1.84-3.71-1.63-5.38c0,0,6.52,2.12,8.48,1.52     c0,0-11.67-5.96-12.89-15.35L586.16,388.4z"></path><path fill="#f7cc7f" d="M558.06,414.07l-4.88-3.86c9.32-9.34,15.97-19.23,20.7-28.41l0.83,0.43L558.06,414.07z"></path><path fill="#fae0b2" d="M575.84,424.15c0,0-13.51,5.18-19.15-7.47l1.37-2.61l16.65-31.84l18.05-34.51c-1.6,3-0.47,6.74,2.53,8.34      c3.31,1.77,7.33,0.87,9.61-1.94C600.73,360.54,581.75,391.09,575.84,424.15z"></path><path fill="#e5bd83" d="M599.42,345.7l-4.14,10.37c-3-1.6-4.14-5.34-2.53-8.34C594.03,345.32,597.02,344.42,599.42,345.7z"></path><path fill="#f7cc7f" d="M592.75,347.72l-18.05,34.51l-0.83-0.43c10.42-20.21,11.59-36.99,11.59-36.99      c3.13-5.86,10.42-8.07,16.29-4.95c4.69,2.51,6.47,8.34,3.96,13.03c0,0,0,0.01-0.02,0.03c-0.07,0.11-0.34,0.5-0.76,1.15      c-0.01,0.02-0.02,0.03-0.03,0.05c-2.28,2.81-6.3,3.7-9.61,1.94l4.14-10.37C597.02,344.42,594.03,345.32,592.75,347.72z"></path><path fill="#13375b" d="M574.42,380.72c0,0,2.58,6.88,11.83,9.12l3.13-7.18c-9.25-2.24-11.69-9.02-11.69-9.02L574.42,380.72z"></path></g><g><polygon fill="#fe875e" points="751.17 366.8 756.43 368 722.73 388.89 723.84 384.01"></polygon><rect width="32.3" height="27.49" x="714.03" y="350.03" fill="#f7cc7f" transform="rotate(-32.21 730.206 363.799)"></rect><polygon fill="#fe875e" points="736.52 343.54 709.19 360.75 712.7 354.9 729.71 344.18"></polygon><rect width="20.11" height="2.24" x="710.56" y="347.47" fill="#f7cc7f" transform="rotate(-32.21 720.605 348.608)"></rect><polygon fill="#fe875e" points="725.19 340.74 728.47 342.21 711.5 353 711.62 349.29"></polygon><path fill="#fec65e" d="M715.09 318.64c-.54 1.17-1.42 3.82.16 6.32l9.94 15.77-13.57 8.55-9.94-15.77c-1.58-2.51-4.34-2.86-5.63-2.88 3.8-.22 7.6-1.38 11.05-3.56C710.56 324.9 713.25 321.97 715.09 318.64zM677.17 318.31l1.13 1.8-2.01 1.27c-6.3 3.97-14.63 2.08-18.6-4.22l-4.43-7.03c-.89-1.41-1.12-3.05-.78-4.56.34-1.5 1.26-2.88 2.67-3.77 4.59-2.89 10.66-1.52 13.55 3.07L677.17 318.31zM674.57 319.26l-8.15-12.94c-2.09-3.32-6.49-4.31-9.81-2.22-1.55.98-2.02 3.04-1.04 4.59l4.43 7.03C663.1 320.64 669.57 322.19 674.57 319.26zM715.06 271.2l4.43 7.03c3.97 6.3 2.08 14.63-4.22 18.6l-2.01 1.27-1.13-1.8-8.47-13.44c-2.89-4.59-1.51-10.65 3.08-13.55 1.41-.89 3.05-1.12 4.56-.78C712.79 268.87 714.17 269.79 715.06 271.2zM717.2 279.67l-4.43-7.03c-.98-1.55-3.04-2.02-4.59-1.04-3.32 2.09-4.32 6.49-2.23 9.81l8.15 12.94C718.91 291.11 720.3 284.6 717.2 279.67z"></path><path fill="#fec65e" d="M698.48,269.56l15.93,25.29c4.57,7.26,4.66,16.07,0.99,23.18c0,0-0.01,0-0.01,0.01     c-0.03,0.04-0.14,0.23-0.28,0.54c-0.01,0.02-0.02,0.04-0.03,0.06c-1.84,3.33-4.53,6.26-7.98,8.43     c-3.45,2.17-7.25,3.34-11.05,3.56c-0.02,0-0.04,0-0.06,0c-0.34,0-0.56,0.02-0.61,0.02c-0.01,0-0.02,0-0.02,0     c-8,0.24-15.91-3.64-20.48-10.9l-15.93-25.29L698.48,269.56z"></path><path fill="#fec65e" d="M713.38,293.2l1.04,1.65c4.57,7.26,4.66,16.07,0.99,23.18c0,0-0.01,0-0.01,0.01     c-0.03,0.04-0.14,0.23-0.28,0.54c-0.01,0.02-0.02,0.04-0.03,0.06c-1.84,3.33-4.53,6.26-7.98,8.43     c-3.45,2.17-7.25,3.34-11.05,3.56c-0.02,0-0.04,0-0.06,0c-0.34,0-0.56,0.02-0.61,0.02c-0.01,0-0.02,0-0.02,0     c-8,0.24-15.91-3.64-20.48-10.9l-1.04-1.65c4.57,7.26,12.48,11.14,20.48,10.9c0,0,0.01,0,0.02,0c0.05-0.01,0.27-0.03,0.61-0.02     c0.02,0,0.04,0,0.06,0c3.8-0.22,7.6-1.38,11.05-3.56c3.45-2.17,6.14-5.1,7.98-8.43c0.01-0.02,0.02-0.04,0.03-0.06     c0.14-0.31,0.26-0.5,0.28-0.54c0-0.01,0.01-0.01,0.01-0.01C718.04,309.27,717.95,300.46,713.38,293.2z"></path></g><g><path fill="#a3bf50" d="M474.08,529.56h-7.71c0,5.17-3.68,9.48-8.57,10.45c-0.67,0.14-1.37,0.21-2.08,0.21l-0.32-0.01l-2.62,86.56      l-0.05,1.78h1.15h1.4h17.07h1.39l0.21-1.78l7.51-63.11l4.06-34.09H474.08z"></path><path fill="#7a8f3c" d="M485.51,529.56h7.71c0,4.94,3.12,9.1,8.64,10.3c1.05,0.23,2.19,0.35,3.42,0.35l11.41,86.55l0.24,1.78      h-1.39h-0.85h-17.63h-1.56l-0.39-1.78l-13.66-63.11L485.51,529.56z"></path><path fill="#f8a492" d="M480.66 636.96c0 0-2.84 1.38-1.89 4.33h6.25c-.14-1.16-.81-2.2-1.83-2.81C482.2 637.89 481.38 637.4 480.66 636.96zM452.71 632.9v4.41c5.73-.07 5.1-5.16 5.1-5.16-2.29-.15-3.66-.34-3.91-.38-.03 0-.04-.01-.04-.01h-.02C453.22 631.77 452.71 632.28 452.71 632.9z"></path><path fill="#f47458" d="M473.93,632.73c-0.46-0.29-0.97-0.61-1.52-0.96c0,0-0.55,0.08-1.52,0.17c-1.62,0.16-4.41,0.37-7.78,0.37       c-0.28,0-0.56,0-0.83-0.01c-1.73-0.01-3.23-0.08-4.46-0.15c0,0,0.63,5.08-5.1,5.16v3.97h26.06c-0.95-2.95,1.89-4.33,1.89-4.33       c-1.52-0.92-2.65-1.64-4.18-2.61C475.75,633.89,474.93,633.36,473.93,632.73z"></path><path fill="#b75742" d="M452.71,641.29v0.14c0,0.79,0.64,1.43,1.43,1.43h29.78c0.31,0,0.59-0.13,0.8-0.33       c0.2-0.21,0.33-0.49,0.33-0.8c0-0.15-0.01-0.3-0.03-0.45h-6.25H452.71z"></path><path fill="#fae0b2" d="M453.87,628.54v3.24c0,0,0.01,0,0.04,0.01c0.44,0.05,4.42,0.48,8.36,0.53c0.27,0.01,0.55,0.01,0.83,0.01       c3.37,0,6.16-0.21,7.78-0.37c0.94-0.1,1.46-0.17,1.46-0.17v-3.24h-17.07H453.87z"></path><path fill="#f8a492" d="M471.37 635.53c-.04 0-.09-.02-.12-.05-.07-.07-.07-.17 0-.24l2.56-2.62c.07-.07.17-.07.24 0 .07.07.07.17 0 .24l-2.56 2.62C471.45 635.51 471.41 635.53 471.37 635.53zM472.64 636.4c-.04 0-.09-.02-.12-.05-.07-.07-.07-.17 0-.24l2.56-2.62c.07-.07.17-.07.24 0 .07.07.07.17 0 .24l-2.56 2.62C472.73 636.38 472.69 636.4 472.64 636.4zM473.93 637.13c-.04 0-.09-.02-.12-.05-.07-.07-.07-.17 0-.24l2.55-2.61c.06-.08.16-.09.24-.03.08.06.09.17.03.24l-.01.01-2.56 2.63C474.01 637.11 473.97 637.13 473.93 637.13z"></path><g><path fill="#f8a492" d="M523.89 636.96c0 0-2.84 1.38-1.89 4.33h6.25c-.14-1.16-.81-2.2-1.83-2.81C525.44 637.89 524.62 637.4 523.89 636.96zM495.95 632.9v4.41c5.73-.07 5.1-5.16 5.1-5.16-2.29-.15-3.66-.34-3.91-.38-.03 0-.04-.01-.04-.01h-.02C496.46 631.77 495.95 632.28 495.95 632.9z"></path><path fill="#f47458" d="M517.16,632.73c-0.46-0.29-0.97-0.61-1.52-0.96c0,0-0.55,0.08-1.52,0.17c-1.62,0.16-4.41,0.37-7.78,0.37       c-0.28,0-0.56,0-0.83-0.01c-1.73-0.01-3.23-0.08-4.46-0.15c0,0,0.63,5.08-5.1,5.16v3.97h26.06c-0.95-2.95,1.89-4.33,1.89-4.33       c-1.52-0.92-2.65-1.64-4.18-2.61C518.98,633.89,518.16,633.36,517.16,632.73z"></path><path fill="#b75742" d="M495.95,641.29v0.14c0,0.79,0.64,1.43,1.43,1.43h29.78c0.31,0,0.59-0.13,0.8-0.33       c0.2-0.21,0.33-0.49,0.33-0.8c0-0.15-0.01-0.3-0.03-0.45h-6.25H495.95z"></path><path fill="#fae0b2" d="M497.1,628.54v3.24c0,0,0.01,0,0.04,0.01c0.44,0.05,4.42,0.48,8.36,0.53c0.27,0.01,0.55,0.01,0.83,0.01       c3.37,0,6.16-0.21,7.78-0.37c0.94-0.1,1.46-0.17,1.46-0.17v-3.24h-17.07H497.1z"></path><path fill="#f8a492" d="M514.6 635.53c-.04 0-.09-.02-.12-.05-.07-.07-.07-.17 0-.24l2.56-2.62c.07-.07.17-.07.24 0 .07.07.07.17 0 .24l-2.56 2.62C514.69 635.51 514.65 635.53 514.6 635.53zM515.88 636.4c-.04 0-.09-.02-.12-.05-.07-.07-.07-.17 0-.24l2.56-2.62c.07-.07.17-.07.24 0 .07.07.07.17 0 .24l-2.56 2.62C515.97 636.38 515.92 636.4 515.88 636.4zM517.16 637.13c-.04 0-.09-.02-.12-.05-.07-.07-.07-.17 0-.24l2.55-2.61c.06-.08.16-.09.24-.03.08.06.09.17.03.24l-.01.01-2.56 2.63C517.25 637.11 517.21 637.13 517.16 637.13z"></path></g><g><polygon fill="#3f4411" points="485.51 529.56 484.2 576.35 481.46 563.65"></polygon><path fill="#3f4411" d="M455.72 529.56l-.32 10.64.32.01c.71 0 1.41-.07 2.08-.21 4.89-.97 8.57-5.28 8.57-10.45H455.72zM503.88 529.56h-10.65c0 4.94 3.12 9.1 8.64 10.3 1.05.23 2.19.35 3.42.35L503.88 529.56z"></path><path fill="#171c51" d="M455.39 540.37c.67 0 1.72-.05 2.44-.2 5.05-1 8.71-5.46 8.71-10.62 0-.09-.08-.17-.17-.17s-.17.08-.17.17c0 4.99-3.55 9.31-8.43 10.28-.65.13-1.66.19-2.37.19-.09 0-.17.08-.17.17S455.3 540.37 455.39 540.37zM501.94 540.54c.01 0 .02 0 .02 0 .09-.01.16-.1.14-.19l-.07-.51c-.01-.09-.1-.16-.19-.14-.09.01-.16.1-.14.19l.07.51C501.78 540.48 501.85 540.54 501.94 540.54zM514.31 627.05l-.15-1.01c-.01-.09.05-.18.14-.19.09-.01.18.05.19.14l.15 1.01c.01.09-.05.18-.14.19-.01 0-.02 0-.02 0C514.39 627.19 514.32 627.13 514.31 627.05zM514.01 625.03l-.15-1.01c-.01-.09.05-.18.14-.19.09-.01.18.05.19.14l.15 1.01c.01.09-.05.18-.14.19-.01 0-.02 0-.02 0C514.1 625.18 514.03 625.12 514.01 625.03zM513.72 623.02l-.15-1.01c-.01-.09.05-.18.14-.19.09-.01.18.05.19.14l.15 1.01c.01.09-.05.18-.14.19-.01 0-.02 0-.02 0C513.81 623.16 513.74 623.1 513.72 623.02zM513.43 621l-.15-1.01c-.01-.09.05-.18.14-.19.09-.01.18.05.19.14l.15 1.01c.01.09-.05.18-.14.19-.01 0-.02 0-.02 0C513.52 621.15 513.44 621.09 513.43 621zM513.14 618.99l-.15-1.01c-.01-.09.05-.18.14-.19.09-.01.18.05.19.14l.15 1.01c.01.09-.05.18-.14.19-.01 0-.02 0-.02 0C513.23 619.13 513.15 619.07 513.14 618.99zM512.85 616.97l-.15-1.01c-.01-.09.05-.18.14-.19.09-.01.18.05.19.14l.15 1.01c.01.09-.05.18-.14.19-.01 0-.02 0-.02 0C512.93 617.12 512.86 617.06 512.85 616.97zM512.56 614.96l-.15-1.01c-.01-.09.05-.18.14-.19.09-.01.18.05.19.14l.15 1.01c.01.09-.05.18-.14.19-.01 0-.02 0-.02 0C512.64 615.1 512.57 615.04 512.56 614.96zM512.27 612.94l-.15-1.01c-.01-.09.05-.18.14-.19.09-.01.18.05.19.14l.15 1.01c.01.09-.05.18-.14.19-.01 0-.02 0-.02 0C512.35 613.09 512.28 613.03 512.27 612.94zM511.97 610.93l-.15-1.01c-.01-.09.05-.18.14-.19.09-.01.18.05.19.14l.15 1.01c.01.09-.05.18-.14.19-.01 0-.02 0-.02 0C512.06 611.07 511.99 611.01 511.97 610.93zM511.68 608.91l-.15-1.01c-.01-.09.05-.18.14-.19.09-.01.18.05.19.14l.15 1.01c.01.09-.05.18-.14.19-.01 0-.02 0-.02 0C511.77 609.06 511.69 609 511.68 608.91zM511.39 606.9l-.15-1.01c-.01-.09.05-.18.14-.19.09-.02.18.05.19.14l.15 1.01c.01.09-.05.18-.14.19-.01 0-.02 0-.02 0C511.48 607.04 511.4 606.98 511.39 606.9zM511.1 604.88l-.15-1.01c-.01-.09.05-.18.14-.19.1-.02.18.05.19.14l.15 1.01c.01.09-.05.18-.14.19-.01 0-.02 0-.02 0C511.18 605.03 511.11 604.96 511.1 604.88zM510.81 602.86l-.15-1.01c-.01-.09.05-.18.14-.19.1-.02.18.05.19.14l.15 1.01c.01.09-.05.18-.14.19-.01 0-.02 0-.02 0C510.89 603.01 510.82 602.95 510.81 602.86zM510.52 600.85l-.15-1.01c-.01-.09.05-.18.14-.19.09-.02.18.05.19.14l.15 1.01c.01.09-.05.18-.14.19-.01 0-.02 0-.02 0C510.6 601 510.53 600.93 510.52 600.85zM510.22 598.83l-.15-1.01c-.01-.09.05-.18.14-.19.09-.02.18.05.19.14l.15 1.01c.01.09-.05.18-.14.19-.01 0-.02 0-.02 0C510.31 598.98 510.24 598.92 510.22 598.83zM509.93 596.82l-.15-1.01c-.01-.09.05-.18.14-.19.09-.01.18.05.19.14l.15 1.01c.01.09-.05.18-.14.19-.01 0-.02 0-.02 0C510.02 596.97 509.94 596.9 509.93 596.82zM509.64 594.8l-.15-1.01c-.01-.09.05-.18.14-.19.09-.02.18.05.19.14l.15 1.01c.01.09-.05.18-.14.19-.01 0-.02 0-.02 0C509.73 594.95 509.65 594.89 509.64 594.8zM509.35 592.79l-.15-1.01c-.01-.09.05-.18.14-.19.09-.01.18.05.19.14l.15 1.01c.01.09-.05.18-.14.19-.01 0-.02 0-.02 0C509.43 592.93 509.36 592.87 509.35 592.79zM509.06 590.77l-.15-1.01c-.01-.09.05-.18.14-.19.09-.02.18.05.19.14l.15 1.01c.01.09-.05.18-.14.19-.01 0-.02 0-.02 0C509.14 590.92 509.07 590.86 509.06 590.77zM508.77 588.76l-.15-1.01c-.01-.09.05-.18.14-.19.1-.02.18.05.19.14l.15 1.01c.01.09-.05.18-.14.19-.01 0-.02 0-.02 0C508.85 588.9 508.78 588.84 508.77 588.76zM508.47 586.74l-.15-1.01c-.01-.09.05-.18.14-.19.09-.02.18.05.19.14l.15 1.01c.01.09-.05.18-.14.19-.01 0-.02 0-.02 0C508.56 586.89 508.49 586.83 508.47 586.74zM508.18 584.73l-.15-1.01c-.01-.09.05-.18.14-.19.09-.01.18.05.19.14l.15 1.01c.01.09-.05.18-.14.19-.01 0-.02 0-.02 0C508.27 584.87 508.2 584.81 508.18 584.73zM507.89 582.71l-.15-1.01c-.01-.09.05-.18.14-.19.1-.02.18.05.19.14l.15 1.01c.01.09-.05.18-.14.19-.01 0-.02 0-.02 0C507.98 582.86 507.9 582.8 507.89 582.71zM507.6 580.7l-.15-1.01c-.01-.09.05-.18.14-.19.09-.02.18.05.19.14l.15 1.01c.01.09-.05.18-.14.19-.01 0-.02 0-.02 0C507.69 580.84 507.61 580.78 507.6 580.7zM507.31 578.68l-.15-1.01c-.01-.09.05-.18.14-.19.09-.02.18.05.19.14l.15 1.01c.01.09-.05.18-.14.19-.01 0-.02 0-.02 0C507.39 578.83 507.32 578.77 507.31 578.68zM507.02 576.67l-.15-1.01c-.01-.09.05-.18.14-.19.09-.02.18.05.19.14l.15 1.01c.01.09-.05.18-.14.19-.01 0-.02 0-.02 0C507.1 576.81 507.03 576.75 507.02 576.67zM506.73 574.65l-.15-1.01c-.01-.09.05-.18.14-.19.1-.02.18.05.19.14l.15 1.01c.01.09-.05.18-.14.19-.01 0-.02 0-.02 0C506.81 574.8 506.74 574.74 506.73 574.65zM506.43 572.64l-.15-1.01c-.01-.09.05-.18.14-.19.09-.02.18.05.19.14l.15 1.01c.01.09-.05.18-.14.19-.01 0-.02 0-.02 0C506.52 572.78 506.45 572.72 506.43 572.64zM506.14 570.62l-.15-1.01c-.01-.09.05-.18.14-.19.09-.02.18.05.19.14l.15 1.01c.01.09-.05.18-.14.19-.01 0-.02 0-.02 0C506.23 570.77 506.15 570.71 506.14 570.62zM505.85 568.61l-.15-1.01c-.01-.09.05-.18.14-.19.09-.01.18.05.19.14l.15 1.01c.01.09-.05.18-.14.19-.01 0-.02 0-.02 0C505.94 568.75 505.86 568.69 505.85 568.61zM505.56 566.59l-.15-1.01c-.01-.09.05-.18.14-.19.09-.02.18.05.19.14l.15 1.01c.01.09-.05.18-.14.19-.01 0-.02 0-.02 0C505.64 566.74 505.57 566.68 505.56 566.59zM505.27 564.57l-.15-1.01c-.01-.09.05-.18.14-.19.09-.01.18.05.19.14l.15 1.01c.01.09-.05.18-.14.19-.01 0-.02 0-.02 0C505.35 564.72 505.28 564.66 505.27 564.57zM504.98 562.56l-.15-1.01c-.01-.09.05-.18.14-.19.09-.02.18.05.19.14l.15 1.01c.01.09-.05.18-.14.19-.01 0-.02 0-.02 0C505.06 562.71 504.99 562.64 504.98 562.56zM504.68 560.54l-.15-1.01c-.01-.09.05-.18.14-.19.09-.01.18.05.19.14l.15 1.01c.01.09-.05.18-.14.19-.01 0-.02 0-.02 0C504.77 560.69 504.7 560.63 504.68 560.54zM504.39 558.53l-.15-1.01c-.01-.09.05-.18.14-.19.09-.02.18.05.19.14l.15 1.01c.01.09-.05.18-.14.19-.01 0-.02 0-.02 0C504.48 558.68 504.4 558.61 504.39 558.53zM504.1 556.51l-.15-1.01c-.01-.09.05-.18.14-.19.09-.02.18.05.19.14l.15 1.01c.01.09-.05.18-.14.19-.01 0-.02 0-.02 0C504.19 556.66 504.11 556.6 504.1 556.51zM503.81 554.5l-.15-1.01c-.01-.09.05-.18.14-.19.09-.02.18.05.19.14l.15 1.01c.01.09-.05.18-.14.19-.01 0-.02 0-.02 0C503.89 554.64 503.82 554.58 503.81 554.5zM503.52 552.48l-.15-1.01c-.01-.09.05-.18.14-.19.09-.02.18.05.19.14l.15 1.01c.01.09-.05.18-.14.19-.01 0-.02 0-.02 0C503.6 552.63 503.53 552.57 503.52 552.48zM503.23 550.47l-.15-1.01c-.01-.09.05-.18.14-.19.09-.02.18.05.19.14l.15 1.01c.01.09-.05.18-.14.19-.01 0-.02 0-.02 0C503.31 550.61 503.24 550.55 503.23 550.47zM502.93 548.45l-.15-1.01c-.01-.09.05-.18.14-.19.09-.01.18.05.19.14l.15 1.01c.01.09-.05.18-.14.19-.01 0-.02 0-.02 0C503.02 548.6 502.95 548.54 502.93 548.45zM502.64 546.44l-.15-1.01c-.01-.09.05-.18.14-.19.09-.01.18.05.19.14l.15 1.01c.01.09-.05.18-.14.19-.01 0-.02 0-.02 0C502.73 546.58 502.66 546.52 502.64 546.44zM502.35 544.42l-.15-1.01c-.01-.09.05-.18.14-.19.09-.02.18.05.19.14l.15 1.01c.01.09-.05.18-.14.19-.01 0-.02 0-.02 0C502.44 544.57 502.36 544.51 502.35 544.42zM502.06 542.41l-.15-1.01c-.01-.09.05-.18.14-.19.09-.02.18.05.19.14l.15 1.01c.01.09-.05.18-.14.19-.01 0-.02 0-.02 0C502.14 542.55 502.07 542.49 502.06 542.41zM514.69 628.71c.01 0 .02 0 .02 0 .09-.01.16-.1.14-.19l-.07-.51c-.01-.09-.1-.16-.19-.14-.09.01-.16.1-.14.19l.07.51C514.54 628.65 514.61 628.71 514.69 628.71z"></path><path fill="#171c51" d="M494.95,626.76c0-0.09,0.08-0.17,0.17-0.17h1.02c0.09,0,0.17,0.08,0.17,0.17s-0.08,0.17-0.17,0.17          h-1.02C495.02,626.93,494.95,626.85,494.95,626.76z M497,626.76c0-0.09,0.08-0.17,0.17-0.17h1.02          c0.09,0,0.17,0.08,0.17,0.17s-0.08,0.17-0.17,0.17h-1.02C497.07,626.93,497,626.85,497,626.76z M499.05,626.76          c0-0.09,0.08-0.17,0.17-0.17h1.02c0.09,0,0.17,0.08,0.17,0.17s-0.08,0.17-0.17,0.17h-1.02          C499.12,626.93,499.05,626.85,499.05,626.76z M501.1,626.76c0-0.09,0.08-0.17,0.17-0.17h1.03c0.09,0,0.17,0.08,0.17,0.17          s-0.08,0.17-0.17,0.17h-1.03C501.17,626.93,501.1,626.85,501.1,626.76z M503.15,626.76c0-0.09,0.08-0.17,0.17-0.17h1.02          c0.09,0,0.17,0.08,0.17,0.17s-0.08,0.17-0.17,0.17h-1.02C503.22,626.93,503.15,626.85,503.15,626.76z M505.2,626.76          c0-0.09,0.08-0.17,0.17-0.17h1.02c0.09,0,0.17,0.08,0.17,0.17s-0.08,0.17-0.17,0.17h-1.02          C505.27,626.93,505.2,626.85,505.2,626.76z M507.25,626.76c0-0.09,0.08-0.17,0.17-0.17h1.03c0.09,0,0.17,0.08,0.17,0.17          s-0.08,0.17-0.17,0.17h-1.03C507.32,626.93,507.25,626.85,507.25,626.76z M509.3,626.76c0-0.09,0.08-0.17,0.17-0.17h1.03          c0.09,0,0.17,0.08,0.17,0.17s-0.08,0.17-0.17,0.17h-1.03C509.37,626.93,509.3,626.85,509.3,626.76z M511.35,626.76          c0-0.09,0.08-0.17,0.17-0.17h1.03c0.09,0,0.17,0.08,0.17,0.17s-0.08,0.17-0.17,0.17h-1.03          C511.42,626.93,511.35,626.85,511.35,626.76z M513.4,626.76c0-0.09,0.08-0.17,0.17-0.17h1.03c0.09,0,0.17,0.08,0.17,0.17          s-0.08,0.17-0.17,0.17h-1.03C513.47,626.93,513.4,626.85,513.4,626.76z M515.45,626.76c0-0.09,0.08-0.17,0.17-0.17h1.03          c0.09,0,0.17,0.08,0.17,0.17s-0.08,0.17-0.17,0.17h-1.03C515.52,626.93,515.45,626.85,515.45,626.76z"></path><g><path fill="#171c51" d="M455.27,628.71c-0.09,0-0.17-0.08-0.17-0.18l0.01-0.42c0-0.09,0.09-0.16,0.18-0.17          c0.09,0,0.17,0.08,0.17,0.18l-0.01,0.41C455.44,628.64,455.37,628.71,455.27,628.71          C455.27,628.71,455.27,628.71,455.27,628.71z M455.31,627.27c-0.09,0-0.17-0.08-0.17-0.18l0.03-1.02          c0-0.09,0.08-0.17,0.18-0.17c0.09,0,0.17,0.08,0.17,0.18l-0.03,1.02C455.48,627.2,455.41,627.27,455.31,627.27          C455.31,627.27,455.31,627.27,455.31,627.27z M455.37,625.22c-0.09,0-0.17-0.08-0.17-0.18l0.03-1.02          c0-0.09,0.08-0.16,0.18-0.17c0.09,0,0.17,0.08,0.17,0.18l-0.03,1.02C455.54,625.15,455.47,625.22,455.37,625.22          C455.37,625.22,455.37,625.22,455.37,625.22z M455.43,623.17c-0.09,0-0.17-0.08-0.17-0.18l0.03-1.02          c0-0.09,0.08-0.17,0.18-0.17c0.09,0,0.17,0.08,0.17,0.18L455.6,623C455.6,623.1,455.52,623.17,455.43,623.17          C455.43,623.17,455.43,623.17,455.43,623.17z M455.49,621.12c-0.09,0-0.17-0.08-0.17-0.18l0.03-1.02          c0-0.09,0.08-0.16,0.18-0.17c0.09,0,0.17,0.08,0.17,0.18l-0.03,1.02C455.66,621.05,455.58,621.12,455.49,621.12          C455.49,621.12,455.49,621.12,455.49,621.12z M455.54,619.07c-0.09,0-0.17-0.08-0.17-0.18l0.03-1.02          c0-0.09,0.08-0.17,0.18-0.17c0.09,0,0.17,0.08,0.17,0.18l-0.03,1.02C455.72,619,455.64,619.07,455.54,619.07          C455.55,619.07,455.55,619.07,455.54,619.07z M455.6,617.02c-0.09,0-0.17-0.08-0.17-0.18l0.03-1.02          c0-0.09,0.08-0.17,0.18-0.17c0.09,0,0.17,0.08,0.17,0.18l-0.03,1.02C455.77,616.95,455.7,617.02,455.6,617.02          C455.61,617.02,455.6,617.02,455.6,617.02z M455.66,614.97c-0.09,0-0.17-0.08-0.17-0.18l0.03-1.02          c0-0.09,0.08-0.16,0.18-0.17c0.09,0,0.17,0.08,0.17,0.18l-0.03,1.02C455.83,614.9,455.76,614.97,455.66,614.97          C455.66,614.97,455.66,614.97,455.66,614.97z M455.72,612.92c-0.09,0-0.17-0.08-0.17-0.18l0.03-1.02          c0-0.09,0.08-0.17,0.18-0.17c0.09,0,0.17,0.08,0.17,0.18l-0.03,1.02C455.89,612.85,455.82,612.92,455.72,612.92          C455.72,612.92,455.72,612.92,455.72,612.92z M455.78,610.88c-0.09,0-0.17-0.08-0.17-0.18l0.03-1.02          c0-0.09,0.09-0.16,0.18-0.17c0.09,0,0.17,0.08,0.17,0.18l-0.03,1.02C455.95,610.8,455.87,610.88,455.78,610.88          C455.78,610.88,455.78,610.88,455.78,610.88z M455.84,608.83c-0.09,0-0.17-0.08-0.17-0.18l0.03-1.02          c0-0.09,0.08-0.17,0.18-0.17c0.09,0,0.17,0.08,0.17,0.18l-0.03,1.02C456.01,608.75,455.93,608.83,455.84,608.83          C455.84,608.83,455.84,608.83,455.84,608.83z M455.89,606.78c-0.09,0-0.17-0.08-0.17-0.18l0.03-1.02          c0-0.09,0.07-0.17,0.18-0.17c0.09,0,0.17,0.08,0.17,0.18l-0.03,1.02C456.07,606.7,455.99,606.78,455.89,606.78          C455.9,606.78,455.9,606.78,455.89,606.78z M455.95,604.73c-0.09,0-0.17-0.08-0.17-0.18l0.03-1.02          c0-0.09,0.08-0.17,0.18-0.17c0.09,0,0.17,0.08,0.17,0.18l-0.03,1.02C456.13,604.65,456.05,604.73,455.95,604.73          C455.96,604.73,455.95,604.73,455.95,604.73z M456.01,602.68c-0.09,0-0.17-0.08-0.17-0.18l0.03-1.02          c0-0.09,0.09-0.16,0.18-0.17c0.09,0,0.17,0.08,0.17,0.18l-0.03,1.02C456.18,602.61,456.11,602.68,456.01,602.68          C456.01,602.68,456.01,602.68,456.01,602.68z M456.07,600.63c-0.09,0-0.17-0.08-0.17-0.18l0.03-1.02          c0-0.09,0.08-0.17,0.18-0.17c0.09,0,0.17,0.08,0.17,0.18l-0.03,1.02C456.24,600.56,456.17,600.63,456.07,600.63          C456.07,600.63,456.07,600.63,456.07,600.63z M456.13,598.58c-0.09,0-0.17-0.08-0.17-0.18l0.03-1.02          c0-0.09,0.08-0.17,0.18-0.17c0.09,0,0.17,0.08,0.17,0.18l-0.03,1.02C456.3,598.51,456.22,598.58,456.13,598.58          C456.13,598.58,456.13,598.58,456.13,598.58z M456.19,596.53c-0.09,0-0.17-0.08-0.17-0.18l0.03-1.02          c0-0.09,0.08-0.16,0.18-0.17c0.09,0,0.17,0.08,0.17,0.18l-0.03,1.02C456.36,596.46,456.28,596.53,456.19,596.53          C456.19,596.53,456.19,596.53,456.19,596.53z M456.24,594.48c-0.09,0-0.17-0.08-0.17-0.18l0.03-1.02          c0-0.09,0.08-0.17,0.18-0.17c0.09,0,0.17,0.08,0.17,0.18l-0.03,1.02C456.42,594.41,456.34,594.48,456.24,594.48          C456.25,594.48,456.25,594.48,456.24,594.48z M456.3,592.43c-0.09,0-0.17-0.08-0.17-0.18l0.03-1.02          c0-0.09,0.08-0.16,0.18-0.17c0.09,0,0.17,0.08,0.17,0.18l-0.03,1.02C456.48,592.36,456.4,592.43,456.3,592.43          C456.31,592.43,456.3,592.43,456.3,592.43z M456.36,590.38c-0.09,0-0.17-0.08-0.17-0.18l0.03-1.02          c0-0.09,0.08-0.17,0.18-0.17c0.09,0,0.17,0.08,0.17,0.18l-0.03,1.02C456.53,590.31,456.46,590.38,456.36,590.38          C456.37,590.38,456.36,590.38,456.36,590.38z M456.42,588.33c-0.09,0-0.17-0.08-0.17-0.18l0.03-1.02          c0-0.09,0.08-0.16,0.18-0.17c0.09,0,0.17,0.08,0.17,0.18l-0.03,1.02C456.59,588.26,456.52,588.33,456.42,588.33          C456.42,588.33,456.42,588.33,456.42,588.33z M456.48,586.29c-0.09,0-0.17-0.08-0.17-0.18l0.03-1.02          c0-0.09,0.08-0.17,0.18-0.17c0.09,0,0.17,0.08,0.17,0.18l-0.03,1.02C456.65,586.21,456.58,586.29,456.48,586.29          C456.48,586.29,456.48,586.29,456.48,586.29z M456.54,584.24c-0.09,0-0.17-0.08-0.17-0.18l0.03-1.02          c0-0.09,0.08-0.17,0.18-0.17c0.09,0,0.17,0.08,0.17,0.18l-0.03,1.02C456.71,584.16,456.63,584.24,456.54,584.24          C456.54,584.24,456.54,584.24,456.54,584.24z M456.6,582.19c-0.09,0-0.17-0.08-0.17-0.18l0.03-1.02          c0-0.09,0.08-0.16,0.18-0.17c0.09,0,0.17,0.08,0.17,0.18l-0.03,1.02C456.77,582.11,456.69,582.19,456.6,582.19          C456.6,582.19,456.6,582.19,456.6,582.19z M456.65,580.14c-0.09,0-0.17-0.08-0.17-0.18l0.03-1.02          c0-0.09,0.08-0.17,0.18-0.17c0.09,0,0.17,0.08,0.17,0.18l-0.03,1.02C456.83,580.06,456.75,580.14,456.65,580.14          C456.66,580.14,456.66,580.14,456.65,580.14z M456.71,578.09c-0.09,0-0.17-0.08-0.17-0.18l0.03-1.02          c0-0.09,0.07-0.17,0.18-0.17c0.09,0,0.17,0.08,0.17,0.18l-0.03,1.02C456.89,578.01,456.81,578.09,456.71,578.09          C456.72,578.09,456.71,578.09,456.71,578.09z M456.77,576.04c-0.09,0-0.17-0.08-0.17-0.18l0.03-1.02          c0-0.09,0.09-0.17,0.18-0.17c0.09,0,0.17,0.08,0.17,0.18l-0.03,1.02C456.94,575.97,456.87,576.04,456.77,576.04          C456.77,576.04,456.77,576.04,456.77,576.04z M456.83,573.99c-0.09,0-0.17-0.08-0.17-0.18l0.03-1.02          c0-0.09,0.08-0.16,0.18-0.17c0.09,0,0.17,0.08,0.17,0.18l-0.03,1.02C457,573.92,456.93,573.99,456.83,573.99          C456.83,573.99,456.83,573.99,456.83,573.99z M456.89,571.94c-0.09,0-0.17-0.08-0.17-0.18l0.03-1.02          c0-0.09,0.08-0.17,0.18-0.17c0.09,0,0.17,0.08,0.17,0.18l-0.03,1.02C457.06,571.87,456.98,571.94,456.89,571.94          C456.89,571.94,456.89,571.94,456.89,571.94z M456.95,569.89c-0.09,0-0.17-0.08-0.17-0.18l0.03-1.02          c0-0.09,0.08-0.16,0.18-0.17c0.09,0,0.17,0.08,0.17,0.18l-0.03,1.02C457.12,569.82,457.04,569.89,456.95,569.89          C456.95,569.89,456.95,569.89,456.95,569.89z M457,567.84c-0.09,0-0.17-0.08-0.17-0.18l0.03-1.02          c0-0.09,0.09-0.17,0.18-0.17c0.09,0,0.17,0.08,0.17,0.18l-0.03,1.02C457.18,567.77,457.1,567.84,457,567.84          C457.01,567.84,457.01,567.84,457,567.84z M457.06,565.79c-0.09,0-0.17-0.08-0.17-0.18l0.03-1.02          c0-0.09,0.08-0.17,0.18-0.17c0.09,0,0.17,0.08,0.17,0.18l-0.03,1.02C457.24,565.72,457.16,565.79,457.06,565.79          C457.07,565.79,457.06,565.79,457.06,565.79z M457.12,563.74c-0.09,0-0.17-0.08-0.17-0.18l0.03-1.02          c0-0.09,0.08-0.16,0.18-0.17c0.09,0,0.17,0.08,0.17,0.18l-0.03,1.02C457.29,563.67,457.22,563.74,457.12,563.74          C457.12,563.74,457.12,563.74,457.12,563.74z M457.18,561.69c-0.09,0-0.17-0.08-0.17-0.18l0.03-1.02          c0-0.09,0.08-0.17,0.18-0.17c0.09,0,0.17,0.08,0.17,0.18l-0.03,1.02C457.35,561.62,457.28,561.69,457.18,561.69          C457.18,561.69,457.18,561.69,457.18,561.69z M457.24,559.65c-0.09,0-0.17-0.08-0.17-0.18l0.03-1.02          c0-0.09,0.08-0.16,0.18-0.17c0.09,0,0.17,0.08,0.17,0.18l-0.03,1.02C457.41,559.57,457.34,559.65,457.24,559.65          C457.24,559.65,457.24,559.65,457.24,559.65z M457.3,557.6c-0.09,0-0.17-0.08-0.17-0.18l0.03-1.02          c0-0.09,0.08-0.17,0.18-0.17c0.09,0,0.17,0.08,0.17,0.18l-0.03,1.02C457.47,557.52,457.39,557.6,457.3,557.6          C457.3,557.6,457.3,557.6,457.3,557.6z M457.36,555.55c-0.09,0-0.17-0.08-0.17-0.18l0.03-1.02c0-0.09,0.08-0.16,0.18-0.17          c0.09,0,0.17,0.08,0.17,0.18l-0.03,1.02C457.53,555.47,457.45,555.55,457.36,555.55          C457.36,555.55,457.36,555.55,457.36,555.55z M457.41,553.5c-0.09,0-0.17-0.08-0.17-0.18l0.03-1.02          c0-0.09,0.08-0.17,0.18-0.17c0.09,0,0.17,0.08,0.17,0.18l-0.03,1.02C457.59,553.42,457.51,553.5,457.41,553.5          C457.42,553.5,457.41,553.5,457.41,553.5z M457.47,551.45c-0.09,0-0.17-0.08-0.17-0.18l0.03-1.02          c0-0.09,0.08-0.16,0.18-0.17c0.09,0,0.17,0.08,0.17,0.18l-0.03,1.02C457.65,551.38,457.57,551.45,457.47,551.45          C457.48,551.45,457.47,551.45,457.47,551.45z M457.53,549.4c-0.09,0-0.17-0.08-0.17-0.18l0.03-1.02          c0-0.09,0.09-0.17,0.18-0.17c0.09,0,0.17,0.08,0.17,0.18l-0.03,1.02C457.7,549.33,457.63,549.4,457.53,549.4          C457.53,549.4,457.53,549.4,457.53,549.4z M457.59,547.35c-0.09,0-0.17-0.08-0.17-0.18l0.03-1.02          c0-0.09,0.08-0.17,0.18-0.17c0.09,0,0.17,0.08,0.17,0.18l-0.03,1.02C457.76,547.28,457.69,547.35,457.59,547.35          C457.59,547.35,457.59,547.35,457.59,547.35z M457.65,545.3c-0.09,0-0.17-0.08-0.17-0.18l0.03-1.02          c0-0.09,0.08-0.16,0.18-0.17c0.09,0,0.17,0.08,0.17,0.18l-0.03,1.02C457.82,545.23,457.74,545.3,457.65,545.3          C457.65,545.3,457.65,545.3,457.65,545.3z M457.71,543.25c-0.09,0-0.17-0.08-0.17-0.18l0.03-1.02          c0-0.09,0.08-0.17,0.18-0.17c0.09,0,0.17,0.08,0.17,0.18l-0.03,1.02C457.88,543.18,457.8,543.25,457.71,543.25          C457.71,543.25,457.71,543.25,457.71,543.25z M457.76,541.2c-0.09,0-0.17-0.08-0.17-0.18l0.03-1.02          c0-0.09,0.09-0.16,0.18-0.17c0.09,0,0.17,0.08,0.17,0.18l-0.03,1.02C457.94,541.13,457.86,541.2,457.76,541.2          C457.77,541.2,457.77,541.2,457.76,541.2z"></path></g><g><path fill="#171c51" d="M452.6,626.76c0-0.09,0.08-0.17,0.17-0.17h0.66c0.09,0,0.17,0.08,0.17,0.17s-0.08,0.17-0.17,0.17          h-0.66C452.67,626.93,452.6,626.85,452.6,626.76z M454.28,626.76c0-0.09,0.08-0.17,0.17-0.17h1.02          c0.09,0,0.17,0.08,0.17,0.17s-0.08,0.17-0.17,0.17h-1.02C454.36,626.93,454.28,626.85,454.28,626.76z M456.33,626.76          c0-0.09,0.08-0.17,0.17-0.17h1.02c0.09,0,0.17,0.08,0.17,0.17s-0.08,0.17-0.17,0.17h-1.02          C456.41,626.93,456.33,626.85,456.33,626.76z M458.38,626.76c0-0.09,0.08-0.17,0.17-0.17h1.02c0.09,0,0.17,0.08,0.17,0.17          s-0.08,0.17-0.17,0.17h-1.02C458.46,626.93,458.38,626.85,458.38,626.76z M460.43,626.76c0-0.09,0.08-0.17,0.17-0.17h1.02          c0.09,0,0.17,0.08,0.17,0.17s-0.08,0.17-0.17,0.17h-1.02C460.51,626.93,460.43,626.85,460.43,626.76z M462.48,626.76          c0-0.09,0.08-0.17,0.17-0.17h1.02c0.09,0,0.17,0.08,0.17,0.17s-0.08,0.17-0.17,0.17h-1.02          C462.56,626.93,462.48,626.85,462.48,626.76z M464.53,626.76c0-0.09,0.08-0.17,0.17-0.17h1.02c0.09,0,0.17,0.08,0.17,0.17          s-0.08,0.17-0.17,0.17h-1.02C464.61,626.93,464.53,626.85,464.53,626.76z M466.58,626.76c0-0.09,0.08-0.17,0.17-0.17h1.03          c0.09,0,0.17,0.08,0.17,0.17s-0.08,0.17-0.17,0.17h-1.03C466.66,626.93,466.58,626.85,466.58,626.76z M468.63,626.76          c0-0.09,0.08-0.17,0.17-0.17h1.03c0.09,0,0.17,0.08,0.17,0.17s-0.08,0.17-0.17,0.17h-1.03          C468.71,626.93,468.63,626.85,468.63,626.76z M470.68,626.76c0-0.09,0.08-0.17,0.17-0.17h1.02c0.09,0,0.17,0.08,0.17,0.17          s-0.08,0.17-0.17,0.17h-1.02C470.76,626.93,470.68,626.85,470.68,626.76z M472.73,626.76c0-0.09,0.08-0.17,0.17-0.17h1.03          c0.09,0,0.17,0.08,0.17,0.17s-0.08,0.17-0.17,0.17h-1.03C472.81,626.93,472.73,626.85,472.73,626.76z"></path></g><polygon points="455.71 529.56 504.54 534.59 503.88 529.56" opacity=".4"></polygon></g><g><polygon fill="#fae0b2" points="469.97 460.37 471.44 472.16 482.12 470.52 482.2 470.21 482.58 468.74 482.98 467.21 482.99 467.19 484.43 461.63"></polygon><path fill="#fae0b2" d="M469.15,456.04c0.24,6.72,4.47,12.94,11.19,12.7c6.72-0.24,11.93-0.21,13.16-13.57       c0.62-6.7-5.89-11.98-12.61-11.74C474.16,443.67,468.9,449.32,469.15,456.04z"></path><path fill="#13375b" d="M477.16,438.99c0,0,0.15-9.69,14.56-9.02c13.27,0.62,13.91,30.83-9.95,19.59       c-2.08-0.98-4.45-1.16-6.62-0.43c-0.34,0.11-0.64,0.23-0.87,0.34c-1.28,0.63-1.1,4.21-1.1,4.21s-1.7-1.35-2.2,0.99       c-0.5,2.34,1.69,2.7,1.69,2.7l-1.44,6.09c0,0-2.29-3.71-3.85-10.19C465.88,446.99,471.03,437.07,477.16,438.99z"></path><path fill="#fe875e" d="M481.84,471.89l0.74-3.14c0,0-7.75,0.63-10.53-4.07C472.05,464.67,472.09,471.07,481.84,471.89z"></path><path fill="#96d9c9" d="M454.71,510.71l-0.85-15.15c-0.68-12.15-0.04-24.87,19.49-24.86c0.02-0.01,0.05-0.01,0.08-0.01        c1.3-0.21,2.25-0.3,2.7-0.34c0.19-0.01,0.29-0.02,0.29-0.02c25.17,0,24.49,9.35,25.23,22.55l0.8,14.2l2.54,20.9        c0.18,1.48-0.97,2.79-2.47,2.8l-46.17,0.21c-1.43,0.01-2.58-1.19-2.51-2.62L454.71,510.71z"></path><path fill="#587cf8" d="M476.12,470.35c-0.45,0.04-1.4,0.13-2.7,0.34C474.31,470.52,475.21,470.41,476.12,470.35z"></path><g><path fill="#f7cc7f" d="M569.04,438.27l-2.31,5l-11.55,24.95c0,0-13.18,4.08-20.24-4.66c-7.06-8.74,1.92-18.03,1.92-18.03       l26.8-6.05L569.04,438.27z"></path><polygon fill="#fec65e" points="555.19 468.21 470.61 536.48 466.04 530.8 548.73 464.05 548.37 467.46"></polygon><polygon fill="#fec65e" points="539.55 452.7 456.86 519.45 452.29 513.79 536.87 445.52 536.15 452.31"></polygon><polygon fill="#f7f07f" points="548.73 464.05 466.04 530.8 456.86 519.45 539.55 452.7 542.96 453.07 542.26 459.89 549.07 460.64"></polygon><path fill="#ddd" d="M448.2,518.17c-0.93-1.15-0.75-2.81,0.4-3.74l0.49-0.39c1.15-0.93,2.83-0.73,3.75,0.42l4.03,5l4.61,5.75        l8.66,10.76c0.89,1.14,0.73,2.83-0.43,3.73l-0.49,0.39c-1.11,0.89-2.74,0.75-3.69-0.34c-0.03-0.07-0.06-0.11-0.1-0.17        l-8.57-10.65L448.2,518.17z"></path><path fill="#efefef" d="M443.39,521.64c-0.81-1.08-0.6-2.71,0.49-3.59l0.51-0.41c1.13-0.91,2.83-0.73,3.72,0.41l0.09,0.11        l8.66,10.76l8.62,10.76c0.02,0.02,0.03,0.04,0.05,0.06c0.79,1.1,0.59,2.69-0.52,3.55l-0.49,0.39        c-1.09,0.88-2.64,0.77-3.6-0.23c-0.03-0.07-0.07-0.13-0.12-0.18l-17.31-21.53C443.46,521.71,443.42,521.68,443.39,521.64z"></path><path fill="#ddd" d="M439.77,521.34c1.1-0.86,2.72-0.71,3.63,0.3c0.01,0.05,0.04,0.09,0.07,0.13l17.29,21.54        c0.05,0.06,0.09,0.11,0.16,0.15c0.79,1.13,0.55,2.69-0.54,3.57l-0.49,0.39c-1.13,0.91-2.81,0.71-3.72-0.41l-17.33-21.51        l-0.04-0.09c-0.84-1.15-0.63-2.75,0.46-3.66L439.77,521.34z"></path><path fill="#f47458" d="M429.64,531.78l8.66-6.99l0.5,0.62l0.04,0.09l17.33,21.51l0.53,0.69l-8.68,6.97        c-3.06,2.44-7.51,1.96-9.93-1.08l-9.57-11.86C426.09,538.68,426.56,534.23,429.64,531.78z"></path><path fill="#13375b" d="M569.04,438.27l-2.31,5c-1.55-0.72-2.69-2.13-3.07-3.8L569.04,438.27z"></path></g><g><path fill="#fae0b2" d="M499.61,511.93l-1.99,0.25c-2.6,0.33-5-1.52-5.33-4.12h0c-0.33-2.6,1.52-5,4.12-5.33l1.99-0.25        c2.6-0.33,5,1.52,5.33,4.12l0,0C504.06,509.2,502.2,511.6,499.61,511.93z"></path><path fill="#fae0b2" d="M495.05,504.29L495.05,504.29c-0.65-0.63-2.28,0.32-1.65-0.33l4.08-4.54c0.63-0.65,1.68-0.66,2.33-0.03        l0,0c0.65,0.63,0.66,1.68,0.03,2.33l-2.47,2.54C496.75,504.91,495.7,504.93,495.05,504.29z"></path><path fill="#fae0b2" d="M497.73,504.23L497.73,504.23c-0.11-0.9,0.53-1.73,1.43-1.84l3.51-0.45c0.9-0.11,1.73,0.53,1.84,1.43l0,0        c0.11,0.9-0.53,1.73-1.43,1.84l-3.51,0.45C498.67,505.77,497.84,505.13,497.73,504.23z"></path><path fill="#fae0b2" d="M500.2,505.98L500.2,505.98c-0.11-0.9,0.53-1.73,1.43-1.84l3.51-0.45c0.9-0.11,1.73,0.53,1.84,1.43l0,0        c0.11,0.9-0.53,1.73-1.43,1.84l-3.51,0.45C501.15,507.52,500.32,506.88,500.2,505.98z"></path><path fill="#fae0b2" d="M499.63,508.13L499.63,508.13c-0.11-0.9,0.53-1.73,1.43-1.84l3.51-0.45c0.9-0.11,1.73,0.53,1.84,1.43l0,0        c0.11,0.9-0.53,1.73-1.43,1.84l-3.51,0.45C500.57,509.67,499.74,509.03,499.63,508.13z"></path><path fill="#fae0b2" d="M497.88,510.42L497.88,510.42c-0.11-0.9,0.53-1.73,1.43-1.84l3.51-0.45c0.9-0.11,1.73,0.53,1.84,1.43l0,0        c0.11,0.9-0.53,1.73-1.43,1.84l-3.51,0.45C498.82,511.96,497.99,511.32,497.88,510.42z"></path><g><rect width="5.36" height=".34" x="499.19" y="504.08" fill="#fe875e" transform="rotate(-10.219 501.788 504.182)"></rect></g><g><rect width="5.25" height=".34" x="501.02" y="507.01" fill="#fe875e" transform="rotate(-10.219 503.553 507.103)"></rect></g><g><rect width="4.51" height=".34" x="499.97" y="509.4" fill="#fe875e" transform="rotate(-10.219 502.126 509.494)"></rect></g></g><path fill="#50bfa5" d="M463.6,473.78c-5.57,0.1-9.88,4.91-9.37,10.46c0.22,2.37,0.43,4.45,0.6,5.33c0.11,0.64,0.25,1.3,0.38,1.95      c0.13,0.65,0.27,1.3,0.44,1.96c0.16,0.66,0.31,1.31,0.49,1.97l0.56,1.99c0.09,0.33,0.2,0.67,0.31,1l0.34,1.01l0.34,1.01      l0.4,1.04l0.41,1.03c0.07,0.17,0.13,0.34,0.21,0.52l0.25,0.53l0.5,1.06l0.25,0.53l0.13,0.26l0.21,0.4      c0.31,0.55,0.61,1.1,0.96,1.61c0.36,0.5,0.74,1,1.12,1.47c0.4,0.44,0.82,0.88,1.25,1.29c0.43,0.39,0.87,0.75,1.32,1.1      c1.79,1.34,3.6,2.2,5.32,2.79c0.42,0.14,0.86,0.3,1.27,0.4l1.24,0.32c0.8,0.17,1.61,0.32,2.39,0.41      c1.55,0.2,3.05,0.28,4.49,0.27c2.89-0.02,5.59-0.36,8.22-0.85c1.31-0.26,2.6-0.55,3.88-0.9c0.64-0.18,1.27-0.36,1.91-0.55      l0.95-0.31l1.01-0.35l-1.68-9.27c-0.08-0.02-0.24-0.02-0.37-0.04l-0.41-0.03l-0.84-0.06c-0.56-0.04-1.13-0.08-1.69-0.13      c-1.12-0.1-2.24-0.2-3.34-0.35c-2.19-0.26-4.32-0.64-6.24-1.14c-0.96-0.24-1.86-0.54-2.66-0.86c-0.19-0.08-0.41-0.15-0.58-0.25      c-0.18-0.09-0.36-0.17-0.54-0.25l-0.47-0.26c-0.17-0.08-0.27-0.18-0.41-0.27c-0.5-0.36-0.76-1.56-0.76-1.56l-0.17-0.62      l-0.09-0.31c-0.03-0.11-0.05-0.23-0.07-0.34l-0.15-0.69l-0.16-0.69l-0.13-0.74c-0.08-0.5-0.19-0.97-0.26-1.49      c-0.17-1.02-0.63-6-1.04-10.69C472.87,477.51,468.63,473.69,463.6,473.78L463.6,473.78z"></path><g><path fill="#fae0b2" d="M521.61,491.89L521.61,491.89c-0.67,0.61-0.72,1.66-0.1,2.33l2.39,2.61c0.61,0.67,1.66,0.72,2.33,0.1l0,0       c0.67-0.61,0.72-1.66,0.1-2.33l-2.39-2.61C523.33,491.32,522.28,491.28,521.61,491.89z"></path><path fill="#fae0b2" d="M522.91,489.11L522.91,489.11c-0.67,0.61-0.72,1.66-0.1,2.33l3.07,3.36c0.61,0.67,1.66,0.72,2.33,0.1l0,0       c0.67-0.61,0.72-1.66,0.1-2.33l-3.07-3.36C524.63,488.54,523.58,488.5,522.91,489.11z"></path><path fill="#fae0b2" d="M525.38,488.05L525.38,488.05c-0.67,0.61-0.72,1.66-0.1,2.33l2.39,2.61c0.61,0.67,1.66,0.72,2.33,0.1v0       c0.67-0.61,0.72-1.66,0.1-2.33l-2.39-2.61C527.09,487.48,526.05,487.43,525.38,488.05z"></path><path fill="#fae0b2" d="M527.7,486.93L527.7,486.93c-0.67,0.61-0.72,1.66-0.1,2.33l1.06,1.16c0.61,0.67,1.66,0.72,2.33,0.1l0,0       c0.67-0.61,0.72-1.66,0.1-2.33l-1.06-1.16C529.42,486.37,528.37,486.32,527.7,486.93z"></path><rect width=".34" height="5.47" x="524.58" y="490.62" fill="#fe875e" transform="rotate(-45.308 524.757 493.356)"></rect><rect width=".34" height="5.89" x="526.72" y="488.13" fill="#fe875e" transform="rotate(-42.974 526.88 491.059)"></rect><rect width=".34" height="4.15" x="528.48" y="487.2" fill="#fe875e" transform="rotate(-44.053 528.661 489.29)"></rect></g></g></g></g></svg>